v -0.05180289969 0.0336179994 0.3414629996
vn -0.9535642862 0.2451008111 0.1750451028
v -0.05165630206 0.03464480117 0.3333519995
vn -0.9011790752 0.4304300249 -0.05105122179
v -0.05424660072 0.03046140075 0.3378149867
vn -0.9504179955 0.2376600355 0.2005576193
v -0.05285570025 0.03137249872 0.3291989863
vn -0.9046763182 0.3910715282 -0.1691856682
v -0.05846919864 0.00648009032 0.3230549991
vn -0.987197876 0.1485074311 0.05818893388
v -0.05847519636 0.004681939725 0.3272700012
vn -0.9885972142 0.0852157101 0.1241525412
v -0.05734590068 0.01367409993 0.3309400082
vn -0.9627454281 0.1461376101 0.227519393
v -0.05668830499 0.009116389789 0.3323439956
vn -0.8674349189 0.1671170592 0.4686454535
v -0.05685549974 0.01791260019 0.3294360042
vn -0.9737223983 0.1879552305 0.1285982281
v -0.05697819963 0.01235430036 0.318114996
vn -0.9747328162 0.2043139935 0.09028679132
v -0.0559201017 0.01719669998 0.319535017
vn -0.9650477171 0.2596575022 0.03550922126
v -0.05621130392 0.02153160051 0.3298680186
vn -0.9775912166 0.1876623482 0.09538453817
v -0.05994670093 -0.003639440052 0.3364709914
vn -0.9479650259 0.2976636887 0.1129538938
v -0.0580561012 -0.0104198996 0.3527489901
vn -0.9540986419 0.1040697992 0.2808296084
v -0.05684199929 -0.0003130940313 0.3418590128
vn -0.7957587838 0.5195592046 0.3111691475
v -0.05863740295 -0.0005896720686 0.3311699927
vn -0.9687321782 0.22858347 0.09647572786
v -0.0560555011 0.002161409939 0.3385030031
vn -0.8530495763 0.4453023672 0.2720519602
v -0.05664699897 0.005508429836 0.3350500166
vn -0.8797987103 0.276265204 0.3868227005
v -0.0551601015 0.02758489922 0.3345339894
vn -0.9636411667 -0.007923193276 0.2670822144
v -0.05556759983 0.02520089969 0.3320639729
vn -0.9922398925 0.1096069887 0.05870530382
v -0.0521882996 0.0209950991 0.336713016
vn -0.9265425205 -0.1233410537 0.3553954661
v -0.05088430271 0.0287270993 0.3423290253
vn -0.9378439188 0.1154141128 0.3273047507
v -0.05011929572 0.03035159968 0.343930006
vn -0.9704691768 0.2049825042 0.1271683723
v -0.05192819983 0.02445439994 0.3383679986
vn -0.9315899611 -0.06548083574 0.3575645685
v -0.05150289834 0.02655850165 0.3400090039
vn -0.9429003 -0.09153158963 0.3202514052
v -0.05215080082 0.02259970084 0.3375959992
vn -0.9810109138 -0.01858108863 0.1930603832
v -0.05536630005 -0.001481469953 0.3479929864
vn -0.7437945604 0.6278076768 0.2294062227
v -0.05317410454 0.02810770087 0.3267230093
vn -0.9356809855 0.323048085 -0.1419192553
v -0.0523714982 0.01339290012 0.3366830349
vn -0.8775948882 0.09284833074 0.4703258872
v -0.05231419951 0.01720519923 0.3361009955
vn -0.8822745085 0.1068987921 0.4584369063
v -0.05180339888 0.006680150516 0.3407959938
vn -0.9137098789 0.2477404326 0.322116375
v -0.05190650001 0.008023570292 0.3395799994
vn -0.9639405012 0.0486796163 0.2616275251
v -0.05230690166 0.01011239924 0.3382560015
vn -0.8581051826 0.2395988107 0.4541452527
v -0.04997529835 0.002421390265 0.3478899896
vn -0.9095885754 0.3027098775 0.2846319675
v -0.05153730139 0.005510599818 0.3425600231
vn -0.8621051311 0.3503893316 0.3660628498
v -0.05109579489 0.004156139679 0.3441950381
vn -0.8796944022 0.2515181005 0.4035795331
# mm_gid 0
g mmGroup0
f 5//5 6//6 7//7 
f 7//7 6//6 8//8 
f 9//9 10//10 7//7 
f 11//11 10//10 9//9 
f 11//11 9//9 12//12 
f 13//13 14//14 15//15 
f 16//16 13//13 17//17 
f 18//18 6//6 16//16 
f 6//6 18//18 8//8 
f 19//19 20//20 21//21 
f 22//22 23//23 1//1 
f 12//12 21//21 20//20 
f 24//24 25//25 19//19 
f 3//3 19//19 25//25 
f 26//26 19//19 21//21 
f 10//10 5//5 7//7 
f 14//14 27//27 15//15 
f 28//28 11//11 12//12 
f 4//4 3//3 2//2 
f 4//4 19//19 3//3 
f 20//20 4//4 28//28 
f 16//16 17//17 18//18 
f 17//17 13//13 15//15 
f 4//4 20//20 19//19 
f 20//20 28//28 12//12 
f 29//29 30//30 7//7 
f 8//8 29//29 7//7 
f 31//31 32//32 18//18 
f 33//33 29//29 8//8 
f 8//8 18//18 33//33 
f 32//32 33//33 18//18 
f 25//25 22//22 3//3 
f 1//1 3//3 22//22 
f 35//35 31//31 18//18 
f 15//15 35//35 17//17 
f 18//18 17//17 35//35 
f 30//30 21//21 12//12 
f 7//7 30//30 9//9 
f 12//12 9//9 30//30 
f 26//26 24//24 19//19 
f 36//36 35//35 15//15 
f 34//34 36//36 15//15 
f 15//15 27//27 34//34 
