v -0.01083009969 0.1525840014 0.02283760346
vn -0.9539350271 0.2999916077 -0.003609738545
v -0.006926160306 0.1514710039 0.06715789437
vn -0.972896874 0.2293771356 0.02928780764
v 0.006926160306 0.1514710039 0.06715789437
vn 0.972896874 0.2293771356 0.02928780764
v 0.01083009969 0.1525840014 0.02283760346
vn 0.9539350271 0.2999916077 -0.003609738545
v 0 0.2531090081 0.01803969033
vn 8.869884231e-015 0.7796491385 -0.6262165904
v 0 0.2640559971 0.03040510044
vn 5.194823419e-015 0.8607868552 0.5089656115
v 0 0.243057996 0.004262272269
vn 5.30728716e-016 0.9705722928 0.2408099473
v 0 0.1639549881 0.1085380092
vn -7.348972994e-017 0.5843193531 0.8115237951
v 0.00917137973 0.1510629952 0.1059519947
vn 0.8680835962 0.485232383 0.1047871783
v 0 0.2193679959 0.07510410249
vn 1.158438681e-015 0.8038130403 0.5948820114
v -0.00917137973 0.1510629952 0.1059519947
vn -0.8680835962 0.485232383 0.1047871783
# mm_gid 0
g mmGroup0
f 3//3 5//5 6//6 
f 3//3 7//7 5//5 
f 7//7 3//3 4//4 
f 8//8 9//9 10//10 
f 10//10 9//9 3//3 
f 3//3 6//6 10//10 
f 6//6 2//2 10//10 
f 11//11 10//10 2//2 
f 11//11 8//8 10//10 
f 5//5 2//2 6//6 
f 7//7 2//2 5//5 
f 2//2 7//7 1//1 
