v 0.002934520133 0.1999610066 0.09793500602
vn 0.8420531154 -0.3449648321 -0.4146634638
v 0.002934520133 0.1834139973 0.1070050076
vn 0.920258224 -0.1612175107 -0.3565581739
v 0 0.1872680038 0.09971499443
vn -1.374026671e-016 -0.4530589879 -0.8914805651
v 0 0.231043011 0.08926299959
vn 8.406580714e-016 0.9187039137 0.394946903
v 0 0.2160600126 0.1170549914
vn 1.16157535e-015 0.8652121425 0.501406014
v 0.002934520133 0.2268770188 0.09201300144
vn 0.8168230057 0.5109826922 0.2677626908
v 0.002934520133 0.2101910114 0.1194990054
vn 0.8273786902 0.4823665619 0.2876926064
v 0 0.2050590068 0.08891800046
vn -1.985030447e-016 -0.6985514164 -0.7155598402
v 0.002934520133 0.1734060049 0.1759560108
vn 0.9220635891 0.277826339 0.2694647908
v 0 0.1766960025 0.1825160086
vn 2.287374358e-016 0.7841216326 0.6206071973
v 0 0.1998839974 0.1443369836
vn 1.266021395e-015 0.8549948931 0.5186364055
v 0.002934520133 0.1946890205 0.1444869787
vn 0.856120348 0.4343907535 0.2799332738
v 0 0.2260320187 0.06387100369
vn -1.366605736e-016 -0.8147711158 -0.579782784
v 0 0.2393569946 0.04119800776
vn -3.252484227e-016 -0.05852390081 -0.9982860088
v 0.002934520133 0.2341500223 0.05578000471
vn 0.9848306179 -0.01618971489 -0.1727614552
v 0.002934520133 0.2194650024 0.07689600438
vn 0.7719606757 -0.4889013469 -0.4062661529
v 0 0.2402070016 0.06303999573
vn 6.761987102e-017 0.9905686975 0.1370169669
v 0.002934520133 0.2331060022 0.07536900789
vn 0.890937686 0.4413621724 0.1069089845
v 0 0.1766600162 0.1026900038
vn -2.756922671e-017 -0.09520231932 -0.9954579473
v 0.002934520133 0.1735489964 0.1095039994
vn 0.9417470694 -0.004779611249 -0.3362879157
v 0.005869030021 0.2201499939 0.09200399369
vn 0.9754475951 0.1979102939 0.09661021829
v 0.005869030021 0.2232790142 0.07989101112
vn 0.9943927526 -0.002731233602 -0.1057146713
v 0.005869030021 0.2125030011 0.09102699906
vn 0.9406560659 -0.2469295114 -0.2327918112
v 0.005869030021 0.1286959946 0.1310549825
vn 0.9767746329 0.2082662433 -0.05036339164
v 0.00452216994 0.1287540048 0.1511500031
vn 0.9271894097 0.3697084785 -0.06029492244
v 0.005869030021 0.1669010073 0.1710570008
vn 0.9991729856 0.01440251712 0.03802451864
v 0.005869030021 0.204768002 0.1206239983
vn 0.987881124 0.1328244805 0.08030301332
v 0.005869030021 0.1893460155 0.1436080039
vn 0.9986986518 0.03253980726 0.03927024454
v 0.005869030021 0.1522469968 0.1183840036
vn 0.9945982695 -0.02652991563 -0.100351423
v 0.005869030021 0.1957889795 0.1086999923
vn 0.9900102019 -0.0846490413 -0.1127576977
v 0.005869030021 0.1812490076 0.1178420112
vn 0.9970151186 -0.01717103459 -0.07527318597
v -0.00452216994 0.1287540048 0.1511500031
vn -0.9271894097 0.3697084785 -0.06029492244
v -0.005869030021 0.1893460155 0.1436080039
vn -0.9986986518 0.03253980726 0.03927024454
v -0.002934520133 0.1946890205 0.1444869787
vn -0.856120348 0.4343907535 0.2799332738
v -0.005869030021 0.204768002 0.1206239983
vn -0.987881124 0.1328244805 0.08030301332
v -0.002934520133 0.1999610066 0.09793500602
vn -0.8420531154 -0.3449648321 -0.4146634638
v -0.002934520133 0.1834139973 0.1070050076
vn -0.920258224 -0.1612175107 -0.3565581739
v -0.005869030021 0.1957889795 0.1086999923
vn -0.9900102019 -0.0846490413 -0.1127576977
v -0.005869030021 0.1812490076 0.1178420112
vn -0.9970151186 -0.01717103459 -0.07527318597
v -0.002934520133 0.2101910114 0.1194990054
vn -0.8273786902 0.4823665619 0.2876926064
v -0.002934520133 0.1734060049 0.1759560108
vn -0.9220635891 0.277826339 0.2694647908
v -0.005869030021 0.1669010073 0.1710570008
vn -0.9991729856 0.01440251712 0.03802451864
v -0.002934520133 0.2268770188 0.09201300144
vn -0.8168230057 0.5109826922 0.2677626908
v -0.005869030021 0.2201499939 0.09200399369
vn -0.9754475951 0.1979102939 0.09661021829
v -0.002934520133 0.2341500223 0.05578000471
vn -0.9848306179 -0.01618971489 -0.1727614552
v -0.002934520133 0.2194650024 0.07689600438
vn -0.7719606757 -0.4889013469 -0.4062661529
v -0.005869030021 0.2232790142 0.07989101112
vn -0.9943927526 -0.002731233602 -0.1057146713
v -0.005869030021 0.2125030011 0.09102699906
vn -0.9406560659 -0.2469295114 -0.2327918112
v -0.002934520133 0.2331060022 0.07536900789
vn -0.890937686 0.4413621724 0.1069089845
v -0.005869030021 0.1286959946 0.1310549825
vn -0.9767746329 0.2082662433 -0.05036339164
v -0.005869030021 0.1522469968 0.1183840036
vn -0.9945982695 -0.02652991563 -0.100351423
v -0.002934520133 0.1735489964 0.1095039994
vn -0.9417470694 -0.004779611249 -0.3362879157
# mm_gid 0
g mmGroup0
f 1//1 2//2 3//3 
f 4//4 5//5 6//6 
f 5//5 7//7 6//6 
f 3//3 8//8 1//1 
f 5//5 11//11 7//7 
f 11//11 12//12 7//7 
f 13//13 14//14 15//15 
f 15//15 16//16 13//13 
f 14//14 17//17 15//15 
f 4//4 6//6 18//18 
f 8//8 13//13 16//16 
f 16//16 1//1 8//8 
f 17//17 4//4 18//18 
f 19//19 3//3 2//2 
f 2//2 20//20 19//19 
f 18//18 21//21 22//22 
f 16//16 15//15 22//22 
f 22//22 23//23 16//16 
f 15//15 18//18 22//22 
f 11//11 10//10 12//12 
f 10//10 9//9 12//12 
f 17//17 18//18 15//15 
f 7//7 12//12 27//27 
f 12//12 28//28 27//27 
f 9//9 26//26 28//28 
f 12//12 9//9 28//28 
f 1//1 16//16 23//23 
f 23//23 30//30 1//1 
f 18//18 6//6 21//21 
f 7//7 27//27 21//21 
f 2//2 1//1 30//30 
f 30//30 31//31 2//2 
f 6//6 7//7 21//21 
f 31//31 27//27 28//28 
f 28//28 26//26 25//25 
f 31//31 30//30 27//27 
f 23//23 22//22 21//21 
f 30//30 23//23 21//21 
f 30//30 21//21 27//27 
f 20//20 2//2 31//31 
f 31//31 29//29 20//20 
f 28//28 25//25 24//24 
f 29//29 31//31 28//28 
f 24//24 29//29 28//28 
f 33//33 34//34 35//35 
f 36//36 37//37 38//38 
f 39//39 38//38 37//37 
f 34//34 40//40 35//35 
f 41//41 34//34 33//33 
f 42//42 41//41 33//33 
f 40//40 43//43 44//44 
f 45//45 46//46 47//47 
f 48//48 47//47 46//46 
f 49//49 45//45 47//47 
f 43//43 49//49 44//44 
f 35//35 40//40 44//44 
f 46//46 36//36 48//48 
f 38//38 48//48 36//36 
f 42//42 33//33 32//32 
f 32//32 33//33 50//50 
f 35//35 39//39 33//33 
f 48//48 38//38 44//44 
f 44//44 38//38 35//35 
f 38//38 39//39 35//35 
f 39//39 51//51 33//33 
f 51//51 39//39 52//52 
f 37//37 52//52 39//39 
f 51//51 50//50 33//33 
f 44//44 49//49 47//47 
f 4//4 17//17 49//49 
f 43//43 4//4 49//49 
f 14//14 13//13 45//45 
f 36//36 46//46 8//8 
f 5//5 4//4 43//43 
f 40//40 5//5 43//43 
f 13//13 8//8 46//46 
f 46//46 45//45 13//13 
f 17//17 14//14 45//45 
f 49//49 17//17 45//45 
f 3//3 19//19 37//37 
f 52//52 37//37 19//19 
f 10//10 11//11 34//34 
f 34//34 11//11 40//40 
f 8//8 3//3 36//36 
f 37//37 36//36 3//3 
f 11//11 5//5 40//40 
f 41//41 10//10 34//34 
f 47//47 48//48 44//44 
