v 37.11119843 -1.563199997 -16.88759995
vn -0.7373655438 -0.2971387506 -0.6066305041
v 37.49269867 -2.548599958 -16.82040024
vn -0.678157866 -0.3486235738 -0.646964848
v 37.61389923 -2.85619998 -16.71030045
vn -0.6645392776 -0.52482903 -0.5319229364
v 37.86489868 -0.9979000092 -17.59499931
vn -0.4983348846 -0.08690244704 -0.8626182675
v 37.91930008 -1.564200044 -17.49629974
vn -0.4976781011 -0.2786295116 -0.8213903308
v 38.06069946 -2.549200058 -17.19370079
vn -0.4524635971 -0.3760041893 -0.8086392879
# mm_gid 0
g mmGroup0
f 1//1 4//4 5//5 
f 3//3 2//2 6//6 
f 2//2 1//1 5//5 
f 5//5 6//6 2//2 
