v -0.08529599011 0.7789040208 -0.2130170316
vn 0.1766013354 0.2493103296 0.9521850348
v -0.08419299871 0.7937589884 -0.2162300348
vn 0.1771281809 0.1430482715 0.9737365246
v -0.08313500136 0.8094189763 -0.2178929746
vn 0.1677569002 0.04383581504 0.9848533273
v -0.06406401098 0.7773680091 -0.2153240144
vn 0.0746043101 0.2725433707 0.9592467546
v -0.0626880005 0.7925999761 -0.2186849862
vn 0.06918807328 0.1502618939 0.9862222672
v -0.06170099974 0.8086490035 -0.22028099
vn 0.06356020272 0.0443193242 0.9969934225
v -0.06103699654 0.8252360225 -0.2202410102
vn 0.05760317668 -0.04766856134 0.9972008467
v -0.04384700209 0.776730001 -0.2156229913
vn -0.03261455521 0.287194103 0.9573169947
v -0.04235399514 0.7922430038 -0.2190140188
vn -0.03643456474 0.1539698094 0.9874035716
v -0.04157500714 0.8085759878 -0.220505029
vn -0.0431365259 0.04265956581 0.9981579781
# mm_gid 0
g mmGroup0
f 1//1 4//4 5//5 
f 1//1 5//5 2//2 
f 3//3 6//6 7//7 
f 3//3 5//5 6//6 
f 3//3 2//2 5//5 
f 8//8 5//5 4//4 
f 8//8 9//9 5//5 
f 10//10 5//5 9//9 
f 10//10 6//6 5//5 
f 10//10 7//7 6//6 
