v -0.1106300056 0.8646309972 0.01309602521
vn -0.4928860664 -0.09630458057 0.8647478223
v -0.1081330106 0.8792120218 0.01590497419
vn -0.4968451262 -0.0639044717 0.8654831648
v -0.1055269837 0.8930379748 0.01812297665
vn -0.5008118749 -0.0186858736 0.8653544188
v -0.09889101237 0.8456580043 0.01621898264
vn -0.3983917534 -0.1501815915 0.9048367143
v -0.09696599841 0.8614640236 0.01946197264
vn -0.3964175582 -0.1239957809 0.9096582532
v -0.09477499127 0.8771619797 0.02230701223
vn -0.3929909766 -0.0935401693 0.9147722721
v -0.09244500101 0.8919150233 0.02454897948
vn -0.3943977654 -0.05508537591 0.9172872901
v -0.09010499716 0.9048889875 0.02598000132
vn -0.3950270712 -0.01434477046 0.9185574651
v -0.08475899696 0.841350019 0.02091702819
vn -0.3205645978 -0.1643338948 0.9328626394
v -0.08316899836 0.8582839966 0.02419801988
vn -0.312486589 -0.1386358738 0.9397511482
v -0.08128698915 0.8751050234 0.02706298605
vn -0.307864964 -0.1109686419 0.9449365735
v -0.07919000834 0.8907920122 0.0293119736
vn -0.3028345108 -0.07416135073 0.9501533508
v -0.0769539997 0.9043260217 0.03074299544
vn -0.3010134101 -0.03732940182 0.9528890252
v -0.07060001045 0.837059021 0.02442596853
vn -0.2606756687 -0.1710692495 0.9501491785
v -0.06934800744 0.8550930023 0.02774198167
vn -0.253331691 -0.1447688043 0.9564858079
v -0.06778099388 0.8730170131 0.03061502427
vn -0.2445957363 -0.1179298237 0.9624268413
v -0.06591599435 0.8896250129 0.03284997493
vn -0.2379595041 -0.08359391242 0.9676710963
v -0.06537999958 0.8898090124 0.03066500463
vn 0.2377865314 0.08364227414 -0.9677094221
v -0.06377001107 0.9037119746 0.03425299749
vn -0.2320599258 -0.04768685251 0.971531868
v -0.06324599683 0.9038180113 0.03206001222
vn 0.2318883985 0.04767901823 -0.971573174
v -0.0614830032 0.9165369868 0.03523997962
vn -0.2165205032 0.219138667 0.9513659477
v -0.06096400693 0.9166129827 0.03304401785
vn 0.2236340195 0.2892640233 -0.9307599664
v -0.05649100244 0.8328099847 0.02717798389
vn -0.2285623401 -0.1731898636 0.9580003023
v -0.05555600673 0.8518850207 0.03054299392
vn -0.2194408923 -0.1459154189 0.9646524787
v -0.05506100506 0.8522139788 0.02836497501
vn 0.219421804 0.1459168643 -0.9646565914
v -0.05430399999 0.8708639741 0.03341602907
vn -0.2110062987 -0.1184283122 0.9702840447
v -0.05382800102 0.8711299896 0.03122496605
vn 0.2109631151 0.1184272468 -0.9702935219
v -0.05270299688 0.8883569837 0.03561502695
vn -0.2022265941 -0.08505736291 0.9756380916
v -0.05224699154 0.888544023 0.03341099992
vn 0.2021703571 0.08507817984 -0.9756479263
v -0.05072299764 0.9029740095 0.03695402294
vn -0.1945492923 -0.0502210483 0.9796062708
v -0.05028500035 0.9030849934 0.03474198282
vn 0.1944738775 0.05021253228 -0.9796216488
v -0.04855400324 0.9161530137 0.03786402196
vn -0.1852765828 0.0882795155 0.9787130952
v -0.04812299088 0.9162340164 0.03564899787
vn 0.1928963661 0.162277028 -0.9677071571
v -0.04250899702 0.8286290169 0.02960400097
vn -0.2087911516 -0.1770848632 0.9617937207
v -0.04203700274 0.8290299773 0.02743201144
vn 0.2088088393 0.1770600677 -0.9617944956
v -0.04184500873 0.8486549854 0.03304998577
vn -0.2031782568 -0.1448703259 0.9683651924
v -0.04138799384 0.8489819765 0.03086402267
vn 0.2031856477 0.1448812038 -0.9683620334
v -0.04089999571 0.8686109781 0.0359230116
vn -0.1932933331 -0.116439268 0.9742071629
v -0.04046400264 0.8688719869 0.03372302279
vn 0.1932975352 0.1164348349 -0.9742068648
v -0.03962999955 0.8869289756 0.03805701062
vn -0.1834255308 -0.08261176199 0.9795562029
v -0.03921600431 0.8871110082 0.0358450301
vn 0.183442086 0.08261220902 -0.9795531034
v -0.03798599541 0.902041018 0.03928802162
vn -0.1743890792 -0.04795125499 0.9835085869
v -0.03759299964 0.9021469951 0.03706697375
vn 0.1743692905 0.04791993275 -0.9835135937
v -0.03615699708 0.9155499935 0.04006798938
vn -0.1493505388 0.2066255659 0.9669541121
v -0.03577300534 0.9156259894 0.03784402087
vn 0.1730992794 0.276199311 -0.9453838468
v -0.02875999548 0.8052700162 0.02767398953
vn -0.1977185458 -0.233811155 0.9519662261
v -0.02849600464 0.8244950175 0.03178598732
vn -0.1964821666 -0.1807142347 0.9637100697
v -0.02806899697 0.8453999758 0.03534001857
vn -0.187882185 -0.144898966 0.9714446068
v -0.02805699781 0.8249049783 0.02961003035
vn 0.196606189 0.1806705594 -0.9636929631
v -0.02764500305 0.8457270265 0.0331469737
vn 0.1879932284 0.1448881477 -0.9714246988
v -0.02743299864 0.8662750125 0.03821100667
vn -0.1795023829 -0.1134677231 0.9771918654
v -0.02703000791 0.8665300012 0.03600398824
vn 0.1796032935 0.1134623215 -0.9771739841
v -0.02654899471 0.8853750229 0.04026097804
vn -0.1687227935 -0.07921319455 0.9824754
v -0.02616899461 0.8855479956 0.03804197535
vn 0.1688199639 0.07922196388 -0.9824579954
v -0.02537400275 0.9009550214 0.04135097563
vn -0.1580161005 -0.04363031313 0.9864721298
v -0.02501800098 0.9010519981 0.03912298009
vn 0.1581049114 0.0436013788 -0.9864591956
v -0.02405400388 0.9147760272 0.04196099192
vn -0.1439901888 0.08878783882 0.9855878949
v -0.02370899357 0.9148409963 0.03973100334
vn 0.1591519713 0.1470003128 -0.9762487411
v -0.0144200027 0.8005599976 0.02941797301
vn -0.1467374116 -0.2503687739 0.9569658041
v -0.01429500617 0.8203830123 0.03381001204
vn -0.1401047111 -0.1873046607 0.9722590446
v -0.0140859969 0.8421199918 0.0374869816
vn -0.1367730051 -0.1458393335 0.9798081517
v -0.0139779998 0.8208079934 0.03161498904
vn 0.140794903 0.1872197092 -0.9721757174
v -0.01377999689 0.8424500227 0.03527500108
vn 0.1374074072 0.1458096653 -0.9797238111
v -0.01376700401 0.8638730049 0.04035697877
vn -0.1282240748 -0.1125072986 0.9853429198
v -0.01347699296 0.8641250134 0.03813200817
vn 0.1287947297 0.112490125 -0.9852704406
v -0.01331300195 0.8837239742 0.04230901971
vn -0.1202674583 -0.07587716728 0.9898375869
v -0.01304200757 0.8838919997 0.04007400945
vn 0.1207735017 0.07586080581 -0.9897772074
v -0.01270199567 0.8997560143 0.04323703423
vn -0.111726433 -0.04053668678 0.9929118752
v -0.01245000213 0.8998439908 0.04099498689
vn 0.1121837422 0.0404987447 -0.992861867
v -0.01201200485 0.9138780236 0.04365201294
vn -0.08995009959 0.207011655 0.9741946459
v -0.01176999323 0.9139339924 0.0414079912
vn 0.1157067418 0.2579695582 -0.9591994882
v 2.481801431e-09 0.7982259989 0.03024102934
vn 1.577668182e-17 -0.2575253844 0.9662715197
v 2.481801431e-09 0.8183339834 0.03478097916
vn -2.752628777e-18 -0.1924157292 0.9813135266
v 2.481801431e-09 0.8187680244 0.03256601468
vn 2.832379328e-18 0.1923608184 -0.9813242555
v 2.481801431e-09 0.8404740095 0.03852500767
vn -1.763159629e-17 -0.147864297 0.9890076518
v 2.481801431e-09 0.8408070207 0.03629198298
vn 2.783965067e-18 0.1478155404 -0.9890149236
v 2.481801431e-09 0.862654984 0.04139400274
vn 0 -0.1117950231 0.9937312603
v 2.481801431e-09 0.8629080057 0.03914999217
vn -2.957633084e-18 0.1117875725 -0.9937321544
v 2.481801431e-09 0.882874012 0.0432950221
vn 0 -0.07673452049 0.997051537
v 2.481801431e-09 0.8830410242 0.04104299471
vn -7.192082309e-18 0.07671172172 -0.9970533252
v 2.481801431e-09 0.8991270065 0.04413603619
vn 0 -0.03768035769 0.9992898703
v 2.481801431e-09 0.8992140293 0.04188001156
vn -8.942354299e-18 0.03765675053 -0.9992907047
v 2.481801431e-09 0.9133980274 0.04444598407
vn -0.001466991846 0.09057211876 0.9958888292
v 2.481801431e-09 0.9134520292 0.04218899086
vn 0.001493214746 0.1397235692 -0.9901894331
v 0.01176999789 0.9139339924 0.0414079912
vn -0.113166675 0.2568475306 -0.959803462
v 0.01201199461 0.9138780236 0.04365201294
vn 0.08736112714 0.2085284293 0.974106729
v 0.01245000679 0.8998439908 0.04099498689
vn -0.1121837422 0.0404987745 -0.992861867
v 0.01270200033 0.8997560143 0.04323703423
vn 0.1117264479 -0.04053664207 0.9929118752
v 0.01304199733 0.8838919997 0.04007400945
vn -0.1207735091 0.07586080581 -0.9897772074
v 0.01331300754 0.8837239742 0.04230901971
vn 0.1202674657 -0.07587721944 0.9898375273
v 0.01347699761 0.8641250134 0.03813200817
vn -0.1287947744 0.1124901026 -0.9852704406
v 0.01376699284 0.8638730049 0.04035697877
vn 0.1282240748 -0.1125072986 0.9853429198
v 0.01378000155 0.8424500227 0.03527500108
vn -0.1374074817 0.1458096653 -0.9797238111
v 0.01397800446 0.8208079934 0.03161498904
vn -0.140794903 0.1872196943 -0.9721757174
v 0.01408600155 0.8421199918 0.0374869816
vn 0.1367730051 -0.1458393335 0.9798081517
v 0.01429499499 0.8203830123 0.03381001204
vn 0.1401047409 -0.1873046607 0.9722590446
v 0.01442000642 0.8005599976 0.02941797301
vn 0.1467373967 -0.2503687143 0.9569658637
v 0.02370899916 0.9148409963 0.03973100334
vn -0.1595667899 0.146623835 -0.9762375951
v 0.02405399457 0.9147760272 0.04196099192
vn 0.1443900317 0.0892456919 0.9854880571
v 0.02501800656 0.9010519981 0.03912298009
vn -0.1581049412 0.04360138625 -0.9864591956
v 0.02537400648 0.9009550214 0.04135097563
vn 0.1580161005 -0.04363023117 0.9864721298
v 0.02616899833 0.8855479956 0.03804197535
vn -0.1688199788 0.07922200114 -0.9824579954
v 0.02654900029 0.8853750229 0.04026097804
vn 0.1687227935 -0.07921320945 0.9824754
v 0.02702999674 0.8665300012 0.03600398824
vn -0.1796033531 0.1134623811 -0.9771739244
v 0.02743300423 0.8662750125 0.03821100667
vn 0.1795022637 -0.1134677306 0.977191925
v 0.02764499374 0.8457270265 0.0331469737
vn -0.1879932433 0.1448881179 -0.9714246988
v 0.02805700339 0.8249049783 0.02961003035
vn -0.1966062188 0.1806704849 -0.9636929631
v 0.02806900255 0.8453999758 0.03534001857
vn 0.1878821701 -0.1448989958 0.9714446068
v 0.02849599347 0.8244950175 0.03178598732
vn 0.1964820474 -0.1807142347 0.9637101293
v 0.02876000293 0.8052700162 0.02767398953
vn 0.1977185011 -0.2338110805 0.9519662857
v 0.03577300161 0.9156259894 0.03784402087
vn -0.1743512154 0.2739366591 -0.9458119869
v 0.03615700081 0.9155499935 0.04006798938
vn 0.1504840702 0.2085177451 0.9663720131
v 0.03759299964 0.9021469951 0.03706697375
vn -0.1743693203 0.0479199402 -0.9835135937
v 0.03798599914 0.902041018 0.03928802162
vn 0.1743884981 -0.04795088619 0.9835087061
v 0.03921600059 0.8871110082 0.0358450301
vn -0.183442086 0.08261223137 -0.9795530438
v 0.03962999582 0.8869289756 0.03805701062
vn 0.1834224761 -0.08261206001 0.9795567393
v 0.04046399891 0.8688719869 0.03372302279
vn -0.1932974905 0.1164348349 -0.9742068648
v 0.04090000317 0.8686109781 0.0359230116
vn 0.193292588 -0.1164401099 0.9742072225
v 0.04138800129 0.8489819765 0.03086402267
vn -0.203185603 0.1448812038 -0.9683620334
v 0.04184500501 0.8486549854 0.03304998577
vn 0.2031783164 -0.1448703408 0.9683651924
v 0.04203699902 0.8290299773 0.02743201144
vn -0.2088088393 0.177060023 -0.9617944956
v 0.04250900075 0.8286290169 0.02960400097
vn 0.2087911218 -0.1770848334 0.9617937803
v 0.04294199869 0.8100619912 0.02573299408
vn 0.2151346952 -0.2190282196 0.9517056942
v 0.04812299833 0.9162340164 0.03564899787
vn -0.1936910748 0.1603709459 -0.9678661823
v 0.04855399951 0.9161530137 0.03786402196
vn 0.1860103011 0.09003259987 0.9784141779
v 0.05028500035 0.9030849934 0.03474198282
vn -0.1944738775 0.05021255836 -0.9796216488
v 0.05072300509 0.9029740095 0.03695402294
vn 0.1945492774 -0.0502191782 0.9796063304
v 0.05224699527 0.888544023 0.03341099992
vn -0.2021703422 0.08507819474 -0.9756479263
v 0.05270300061 0.8883559704 0.03561502695
vn 0.2022265792 -0.08505737036 0.9756380916
v 0.05382800102 0.8711299896 0.03122496605
vn -0.21096313 0.1184272841 -0.9702935219
v 0.05430399626 0.8708639741 0.03341602907
vn 0.2110067457 -0.1184315458 0.9702835083
v 0.05506100133 0.8522139788 0.02836497501
vn -0.2194218636 0.1459168643 -0.9646565914
v 0.055556003 0.8518850207 0.03054299392
vn 0.2194409221 -0.1459154338 0.9646524787
v 0.05597700179 0.8332039714 0.02501499839
vn -0.2285156399 0.1731841564 -0.9580124617
v 0.05649100244 0.8328099847 0.02717798389
vn 0.2285624146 -0.1731898189 0.9580002427
v 0.05713700503 0.8149799705 0.02349399775
vn 0.2333776653 -0.2100276053 0.9494331479
v 0.06096399948 0.9166129827 0.03304401785
vn -0.2247848809 0.2871073782 -0.9311504364
v 0.06148299575 0.9165369868 0.03523997962
vn 0.2175176591 0.2213589847 0.9506241679
v 0.06324599683 0.9038180113 0.03206001222
vn -0.2318883836 0.04767897725 -0.9715732336
v 0.06377000362 0.9037119746 0.03425299749
vn 0.2320603132 -0.04768624529 0.9715318084
v 0.06537999958 0.8898090124 0.03066500463
vn -0.2377865016 0.08364233375 -0.9677094221
v 0.0659160018 0.8896250129 0.03284997493
vn 0.2379625738 -0.08359330893 0.9676703811
v 0.06722900271 0.8732820153 0.02844198048
vn -0.2444706857 0.1179804578 -0.9624524117
v 0.06778100133 0.8730170131 0.03061502427
vn 0.2445968539 -0.1179305688 0.9624264836
v 0.06877700239 0.8554199934 0.02558198199
vn -0.2532606125 0.1447894424 -0.9565014839
v 0.06934799999 0.8550930023 0.02774198167
vn 0.253331691 -0.1447689086 0.9564857483
v 0.070600003 0.837059021 0.02442596853
vn 0.2606756687 -0.1710692346 0.9501491785
v 0.07151400298 0.8200680017 0.02085499652
vn 0.2701310813 -0.2011040896 0.9415871501
v 0.07397200167 0.9168339968 0.02961200848
vn -0.2974641025 0.1560689211 -0.9418904185
v 0.0746480003 0.9167839885 0.03176500648
vn 0.2957113087 0.1118227988 0.9487099051
v 0.07627599686 0.9044079781 0.02859099396
vn -0.3008331358 0.037327189 -0.9529460073
v 0.0769539997 0.9043260217 0.03074299544
vn 0.3010133505 -0.03732941672 0.9528890252
v 0.07850600034 0.8909549713 0.02716699429
vn -0.3026468754 0.07423438877 -0.9502074122
v 0.07919000089 0.8907920122 0.0293119736
vn 0.3028345108 -0.07416125387 0.9501533508
v 0.0812869966 0.8751050234 0.02706298605
vn 0.3078649342 -0.1109685749 0.9449365735
v 0.08316899836 0.8582839966 0.02419801988
vn 0.3124865592 -0.138635993 0.9397511482
v 0.08475899696 0.841350019 0.02091702819
vn 0.3205646873 -0.1643339545 0.9328625798
v 0.08596999943 0.8252660036 0.01741901599
vn 0.3263790011 -0.1928766668 0.9253515005
v 0.09010499716 0.9048889875 0.02598000132
vn 0.3950269222 -0.01434475929 0.9185575247
v 0.09244500101 0.8919150233 0.02454897948
vn 0.3943974972 -0.05508533493 0.9172874093
v 0.09477499872 0.8771619797 0.02230701223
vn 0.3929910362 -0.093540214 0.9147722721
v 0.09696599841 0.8614640236 0.01946197264
vn 0.3964176774 -0.1239960268 0.9096581936
v 0.09889099747 0.8456580043 0.01621898264
vn 0.3983918428 -0.1501815617 0.9048367143
v 0.1055269986 0.8930379748 0.01812297665
vn 0.5008118153 -0.01868595742 0.8653544784
v 0.1081330031 0.8792120218 0.01590497419
vn 0.4968450367 -0.06390488148 0.8654832244
v 0.1106299981 0.8646309972 0.01309602521
vn 0.4928858578 -0.09630478173 0.8647478819
v 0.1182810143 0.894208014 0.009599005803
vn 0.6071001887 0.03158612922 0.7939972878
v 0.1212460175 0.8812810183 0.007415026892
vn 0.5973575711 -0.01825230755 0.8017672896
# mm_gid 0
g mmGroup0
f 35//35 25//25 37//37 
f 35//35 37//37 50//50 
f 35//35 50//50 49//49 
f 62//62 49//49 50//50 
f 62//62 50//50 63//63 
f 62//62 63//63 76//76 
f 62//62 76//76 74//74 
f 94//94 74//74 76//76 
f 94//94 76//76 93//93 
f 94//94 93//93 106//106 
f 94//94 106//106 107//107 
f 121//121 107//107 106//106 
f 121//121 106//106 119//119 
f 121//121 119//119 132//132 
f 121//121 132//132 134//134 
f 147//147 136//136 148//148 
f 147//147 148//148 158//158 
f 147//147 158//158 157//157 
f 147//147 157//157 156//156 
f 147//147 156//156 146//146 
f 147//147 146//146 133//133 
f 147//147 133//133 135//135 
f 147//147 135//135 136//136 
f 122//122 136//136 135//135 
f 122//122 135//135 133//133 
f 122//122 133//133 120//120 
f 122//122 120//120 108//108 
f 122//122 108//108 109//109 
f 122//122 109//109 110//110 
f 122//122 110//110 123//123 
f 122//122 123//123 136//136 
f 96//96 110//110 109//109 
f 96//96 109//109 108//108 
f 96//96 108//108 95//95 
f 96//96 95//95 75//75 
f 96//96 75//75 73//73 
f 96//96 73//73 72//72 
f 96//96 72//72 97//97 
f 96//96 97//97 110//110 
f 60//60 72//72 73//73 
f 60//60 73//73 75//75 
f 60//60 75//75 61//61 
f 60//60 61//61 48//48 
f 60//60 48//48 47//47 
f 60//60 47//47 46//46 
f 60//60 46//46 59//59 
f 60//60 59//59 72//72 
f 34//34 47//47 48//48 
f 34//34 48//48 36//36 
f 34//34 36//36 24//24 
f 34//34 24//24 23//23 
f 14//14 23//23 24//24 
f 14//14 24//24 15//15 
f 14//14 15//15 10//10 
f 14//14 10//10 9//9 
f 4//4 9//9 10//10 
f 4//4 10//10 5//5 
f 163//163 162//162 156//156 
f 163//163 156//156 157//157 
f 161//161 156//156 162//162 
f 161//161 162//162 166//166 
f 161//161 166//166 165//165 
f 161//161 165//165 164//164 
f 161//161 164//164 160//160 
f 161//161 160//160 154//154 
f 161//161 154//154 155//155 
f 161//161 155//155 156//156 
f 144//144 156//156 155//155 
f 144//144 155//155 154//154 
f 144//144 154//154 142//142 
f 144//144 142//142 129//129 
f 144//144 129//129 131//131 
f 144//144 131//131 133//133 
f 144//144 133//133 146//146 
f 144//144 146//146 156//156 
f 118//118 133//133 131//131 
f 118//118 131//131 129//129 
f 118//118 129//129 116//116 
f 118//118 116//116 103//103 
f 118//118 103//103 105//105 
f 118//118 105//105 108//108 
f 118//118 108//108 120//120 
f 118//118 120//120 133//133 
f 92//92 108//108 105//105 
f 92//92 105//105 103//103 
f 92//92 103//103 90//90 
f 92//92 90//90 79//79 
f 92//92 79//79 77//77 
f 92//92 77//77 75//75 
f 92//92 75//75 95//95 
f 92//92 95//95 108//108 
f 64//64 75//75 77//77 
f 64//64 77//77 79//79 
f 64//64 79//79 66//66 
f 64//64 66//66 53//53 
f 64//64 53//53 51//51 
f 64//64 51//51 48//48 
f 64//64 48//48 61//61 
f 64//64 61//61 75//75 
f 38//38 48//48 51//51 
f 38//38 51//51 53//53 
f 38//38 53//53 40//40 
f 38//38 40//40 28//28 
f 38//38 28//28 26//26 
f 38//38 26//26 24//24 
f 38//38 24//24 36//36 
f 38//38 36//36 48//48 
f 16//16 24//24 26//26 
f 16//16 26//26 28//28 
f 16//16 28//28 17//17 
f 16//16 17//17 12//12 
f 16//16 12//12 11//11 
f 16//16 11//11 10//10 
f 16//16 10//10 15//15 
f 16//16 15//15 24//24 
f 6//6 10//10 11//11 
f 6//6 11//11 12//12 
f 6//6 12//12 7//7 
f 6//6 7//7 3//3 
f 6//6 3//3 2//2 
f 6//6 2//2 1//1 
f 6//6 1//1 5//5 
f 6//6 5//5 10//10 
f 168//168 167//167 164//164 
f 168//168 164//164 165//165 
f 159//159 150//150 152//152 
f 159//159 152//152 154//154 
f 159//159 154//154 160//160 
f 159//159 160//160 164//164 
f 140//140 154//154 152//152 
f 140//140 152//152 150//150 
f 140//140 150//150 138//138 
f 140//140 138//138 125//125 
f 140//140 125//125 127//127 
f 140//140 127//127 129//129 
f 140//140 129//129 142//142 
f 140//140 142//142 154//154 
f 114//114 129//129 127//127 
f 114//114 127//127 125//125 
f 114//114 125//125 112//112 
f 114//114 112//112 99//99 
f 114//114 99//99 101//101 
f 114//114 101//101 103//103 
f 114//114 103//103 116//116 
f 114//114 116//116 129//129 
f 88//88 103//103 101//101 
f 88//88 101//101 99//99 
f 88//88 99//99 86//86 
f 88//88 86//86 83//83 
f 88//88 83//83 81//81 
f 88//88 81//81 79//79 
f 88//88 79//79 90//90 
f 88//88 90//90 103//103 
f 68//68 79//79 81//81 
f 68//68 81//81 83//83 
f 68//68 83//83 70//70 
f 68//68 70//70 57//57 
f 68//68 57//57 55//55 
f 68//68 55//55 53//53 
f 68//68 53//53 66//66 
f 68//68 66//66 79//79 
f 42//42 53//53 55//55 
f 42//42 55//55 57//57 
f 42//42 57//57 44//44 
f 42//42 44//44 32//32 
f 42//42 32//32 30//30 
f 42//42 30//30 28//28 
f 42//42 28//28 40//40 
f 42//42 40//40 53//53 
f 19//19 28//28 30//30 
f 19//19 30//30 32//32 
f 19//19 32//32 21//21 
f 19//19 13//13 12//12 
f 19//19 12//12 17//17 
f 19//19 17//17 28//28 
f 8//8 12//12 13//13 
f 8//8 3//3 7//7 
f 8//8 7//7 12//12 
f 138//138 150//150 149//149 
f 138//138 149//149 137//137 
f 125//125 138//138 137//137 
f 125//125 137//137 124//124 
f 112//112 125//125 124//124 
f 112//112 124//124 111//111 
f 99//99 112//112 111//111 
f 99//99 111//111 98//98 
f 86//86 99//99 98//98 
f 86//86 98//98 85//85 
f 83//83 86//86 85//85 
f 83//83 85//85 84//84 
f 70//70 83//83 84//84 
f 70//70 84//84 71//71 
f 57//57 70//70 71//71 
f 57//57 71//71 58//58 
f 44//44 57//57 58//58 
f 44//44 58//58 45//45 
f 32//32 44//44 45//45 
f 32//32 45//45 33//33 
f 21//21 32//32 33//33 
f 21//21 33//33 22//22 
f 139//139 149//149 151//151 
f 139//139 151//151 153//153 
f 139//139 153//153 141//141 
f 139//139 141//141 128//128 
f 139//139 128//128 126//126 
f 139//139 126//126 124//124 
f 139//139 124//124 137//137 
f 139//139 137//137 149//149 
f 113//113 124//124 126//126 
f 113//113 126//126 128//128 
f 113//113 128//128 115//115 
f 113//113 115//115 102//102 
f 113//113 102//102 100//100 
f 113//113 100//100 98//98 
f 113//113 98//98 111//111 
f 113//113 111//111 124//124 
f 87//87 98//98 100//100 
f 87//87 100//100 102//102 
f 87//87 102//102 89//89 
f 87//87 89//89 80//80 
f 87//87 80//80 82//82 
f 87//87 82//82 84//84 
f 87//87 84//84 85//85 
f 87//87 85//85 98//98 
f 69//69 84//84 82//82 
f 69//69 82//82 80//80 
f 69//69 80//80 67//67 
f 69//69 67//67 54//54 
f 69//69 54//54 56//56 
f 69//69 56//56 58//58 
f 69//69 58//58 71//71 
f 69//69 71//71 84//84 
f 43//43 58//58 56//56 
f 43//43 56//56 54//54 
f 43//43 54//54 41//41 
f 43//43 41//41 29//29 
f 43//43 29//29 31//31 
f 43//43 31//31 33//33 
f 43//43 33//33 45//45 
f 43//43 45//45 58//58 
f 20//20 33//33 31//31 
f 20//20 31//31 29//29 
f 20//20 29//29 18//18 
f 20//20 22//22 33//33 
f 39//39 25//25 27//27 
f 39//39 27//27 29//29 
f 39//39 29//29 41//41 
f 39//39 41//41 54//54 
f 39//39 54//54 52//52 
f 39//39 52//52 50//50 
f 39//39 50//50 37//37 
f 39//39 37//37 25//25 
f 65//65 50//50 52//52 
f 65//65 52//52 54//54 
f 65//65 54//54 67//67 
f 65//65 67//67 80//80 
f 65//65 80//80 78//78 
f 65//65 78//78 76//76 
f 65//65 76//76 63//63 
f 65//65 63//63 50//50 
f 91//91 76//76 78//78 
f 91//91 78//78 80//80 
f 91//91 80//80 89//89 
f 91//91 89//89 102//102 
f 91//91 102//102 104//104 
f 91//91 104//104 106//106 
f 91//91 106//106 93//93 
f 91//91 93//93 76//76 
f 117//117 106//106 104//104 
f 117//117 104//104 102//102 
f 117//117 102//102 115//115 
f 117//117 115//115 128//128 
f 117//117 128//128 130//130 
f 117//117 130//130 132//132 
f 117//117 132//132 119//119 
f 117//117 119//119 106//106 
f 143//143 132//132 130//130 
f 143//143 130//130 128//128 
f 143//143 128//128 141//141 
f 143//143 141//141 153//153 
f 143//143 145//145 132//132 
