v 0.1530330032 0.9179589748 -0.05668199062
vn -0.9356477261 -0.2253034413 -0.2716645896
v 0.1550479978 0.9187909961 -0.05609700084
vn 0.8302489519 0.5018228292 0.2426120043
v 0.1567579955 0.9177709818 -0.1072099954
vn -0.9631102085 -0.2174241096 0.1585733593
v 0.1568299979 0.917994976 -0.07335197181
vn -0.9824225307 -0.1066204756 -0.1532253772
v 0.1582130045 0.9179310203 -0.09030597657
vn -0.9539797902 -0.2998450994 0.003931459505
v 0.1587139964 0.9188489914 -0.1075369865
vn 0.7067577839 0.6972960234 -0.1194644049
v 0.1588799953 0.9188899994 -0.07304696739
vn 0.756629169 0.6428329349 0.1194913387
v 0.160040006 0.9085379839 -0.05867601931
vn 0.8974414468 0.3598534763 0.2551555037
v 0.1602459997 0.9189119935 -0.09031597525
vn 0.8296203017 0.5583114624 -0.004296704661
v 0.1637690067 0.9082620144 -0.112130031
vn 0.8743691444 0.4629208148 -0.1455436349
v 0.1638280004 0.9086300135 -0.07633001357
vn 0.9126407504 0.3868917823 0.1319153607
v 0.164703995 0.8983089924 -0.06117301062
vn 0.9109845161 0.3253649771 0.2534657419
v 0.1651789993 0.9085429907 -0.09429397434
vn 0.9075297117 0.4199476838 -0.005812256597
v 0.1684550047 0.8983809948 -0.07933400571
vn 0.9259468913 0.3555004895 0.1274432093
v 0.1698160022 0.8981270194 -0.09780701995
vn 0.922114253 0.3868502378 -0.007221382111
# mm_gid 0
g mmGroup0
f 9//9 6//6 3//3 
f 9//9 3//3 5//5 
f 7//7 9//9 5//5 
f 7//7 5//5 4//4 
f 2//2 7//7 4//4 
f 2//2 4//4 1//1 
f 11//11 2//2 8//8 
f 11//11 8//8 12//12 
f 11//11 12//12 14//14 
f 11//11 14//14 15//15 
f 11//11 15//15 13//13 
f 11//11 13//13 9//9 
f 11//11 9//9 7//7 
f 11//11 7//7 2//2 
f 10//10 9//9 13//13 
f 10//10 13//13 15//15 
f 10//10 6//6 9//9 
