v 0.1541509926 0.8385030031 -0.02762502432
vn -0.7406162024 0.02336671762 -0.6715219021
v 0.1556980014 0.8268070221 -0.02997801825
vn -0.7268505692 0.06223538518 -0.6839700341
v 0.1566230059 0.8147429824 -0.0324139744
vn -0.7099626064 0.1123469397 -0.6952202916
v 0.1645520031 0.8422279954 -0.04076296836
vn -0.8245164752 -0.05287320912 -0.5633622408
v 0.1664520055 0.8307989836 -0.04274501652
vn -0.8132018447 -0.01087841205 -0.5818800926
v 0.1677359939 0.8189880252 -0.04473699629
vn -0.8013535738 0.04303275794 -0.5966411233
v 0.1728190035 0.844802022 -0.05553802848
vn -0.8936190009 -0.1253572851 -0.4309648275
v 0.1750539988 0.833616972 -0.05720699579
vn -0.8895659447 -0.08634121716 -0.4485728145
v 0.1766860038 0.8220739961 -0.05883200094
vn -0.8846119046 -0.02349731699 -0.4657355845
# mm_gid 0
g mmGroup0
f 3//3 2//2 5//5 
f 3//3 5//5 6//6 
f 9//9 6//6 5//5 
f 9//9 5//5 8//8 
f 1//1 4//4 5//5 
f 1//1 5//5 2//2 
f 7//7 5//5 4//4 
f 7//7 8//8 5//5 
