v -0.1148670018 0.7849559784 -0.01011601556
vn 0.454898119 0.3156800568 -0.8327147365
v -0.1137939841 0.7708780169 -0.01521600317
vn 0.4289154112 0.3411591649 -0.8364460468
v -0.1125059947 0.7559130192 -0.02075101063
vn 0.3880618811 0.3443842828 -0.8548727632
v -0.1007159874 0.7920280099 -0.0002809880534
vn 0.4029012918 0.3098010719 -0.8612164855
v -0.1000690013 0.7792150378 -0.00500499038
vn 0.3894618452 0.3579181433 -0.8486542702
v -0.09890700132 0.7655069828 -0.01063599996
vn 0.3546074033 0.3892965913 -0.8501186967
v -0.09757498652 0.7510420084 -0.01681901887
vn 0.3068825305 0.394048363 -0.8663423061
v -0.08599799871 0.7861790061 0.003796980716
vn 0.3407760859 0.3426553905 -0.8754764199
v -0.0852940008 0.7737749815 -0.00126002566
vn 0.3228458166 0.3995304704 -0.85798949
v -0.08409299701 0.7607290149 -0.007345004473
vn 0.2918682098 0.4403017759 -0.8490861654
v -0.08270700276 0.7470909357 -0.01420803275
vn 0.2184389085 0.4665051401 -0.8571215868
v -0.07133000344 0.7805730104 0.006673997734
vn 0.2814149559 0.3753311932 -0.8831376433
v -0.07062400877 0.7687159777 0.001310976339
vn 0.2685314119 0.4423515499 -0.8556962013
v -0.06943699718 0.7565299869 -0.005160971079
vn 0.2250615507 0.4999779165 -0.8362830877
# mm_gid 0
g mmGroup0
f 14//14 11//11 10//10 
f 14//14 10//10 9//9 
f 14//14 9//9 13//13 
f 12//12 13//13 9//9 
f 12//12 9//9 8//8 
f 6//6 11//11 7//7 
f 6//6 7//7 3//3 
f 6//6 3//3 2//2 
f 6//6 2//2 1//1 
f 6//6 1//1 5//5 
f 6//6 5//5 9//9 
f 6//6 9//9 10//10 
f 6//6 10//10 11//11 
f 4//4 9//9 5//5 
f 4//4 8//8 9//9 
