v 0.1516479999 0.7169989944 -0.1723880172
vn -0.5989303589 -0.06565437466 0.7981052399
v 0.1623490006 0.7399380207 -0.162492007
vn -0.673843503 -0.06454373896 0.7360496521
v 0.1630769968 0.7217550278 -0.1634199917
vn -0.6739400625 -0.06420636922 0.7359907031
v 0.1634529978 0.7032690048 -0.164680019
vn -0.6740358472 -0.06387164444 0.7359321117
v 0.1725320071 0.7264639735 -0.1524390131
vn -0.7430037856 -0.06213307008 0.6663969159
# mm_gid 0
g mmGroup0
f 5//5 3//3 4//4 
f 5//5 2//2 3//3 
f 1//1 3//3 2//2 
f 1//1 4//4 3//3 
