v 0.1273040026 0.8411650062 -0.003443012014
vn -0.5840245485 0.1141858473 -0.8036646843
v 0.1286190003 0.8409090042 -0.001625014353
vn 0.5840473175 -0.1142213568 0.8036431074
v 0.1287820041 0.8286479712 -0.006487985607
vn -0.5731151104 0.1437897682 -0.8067611456
v 0.1300760061 0.8283230066 -0.004667004105
vn 0.5731183887 -0.1437574923 0.8067646027
v 0.1402940005 0.8458989859 -0.01340198144
vn -0.6684360504 0.06225392595 -0.7411597371
v 0.1418049932 0.8457599878 -0.01172997337
vn 0.6685006022 -0.06217702106 0.7411079407
v 0.142068997 0.8338850141 -0.01617399231
vn -0.6579700708 0.09028041363 -0.7476127148
v 0.1432670057 0.8219130039 -0.01891501248
vn -0.6416927576 0.1280702502 -0.7561933398
v 0.1435530037 0.8336840272 -0.01448397338
vn 0.6580621004 -0.09027206898 0.7475327849
v 0.1437660009 0.7967590094 -0.02509102225
vn -0.6055567861 0.2227972895 -0.7639780045
v 0.143848002 0.80963099 -0.02182598598
vn -0.6251290441 0.1743940115 -0.7607893348
v 0.144716993 0.8216249943 -0.01720798202
vn 0.6417861581 -0.1280047894 0.7561252117
v 0.1451350003 0.7962579727 -0.02336697653
vn 0.6057007313 -0.2226428688 0.7639088631
v 0.1452589929 0.8092399836 -0.02010802738
vn 0.6252366304 -0.1743918061 0.7607014179
v 0.1520719975 0.8500689864 -0.02516199462
vn -0.7549158931 -0.001801870763 -0.6558191776
v 0.1537750065 0.8500739932 -0.02367900312
vn 0.7550308704 0.001859730342 0.6556866169
v 0.1541509926 0.8385030031 -0.02762502246
vn -0.7406162024 0.02336671762 -0.6715219021
v 0.1556980014 0.8268070221 -0.02997801825
vn -0.7268505692 0.06223538518 -0.6839700341
v 0.155825004 0.8384519815 -0.02611098066
vn 0.7407331467 -0.02329078503 0.6713955402
v 0.1566230059 0.8147429824 -0.0324139744
vn -0.7099626064 0.1123469397 -0.6952202916
v 0.1568289995 0.8021559715 -0.03510600328
vn -0.6929918528 0.168509379 -0.7009756565
v 0.1573390067 0.8266680241 -0.02843398415
vn 0.7270181775 -0.06221773848 0.6837934852
v 0.158227995 0.8144919872 -0.03084597364
vn 0.7101560235 -0.1121983975 0.6950467229
v 0.158397004 0.8017770052 -0.03352502361
vn 0.6931759119 -0.168428272 0.7008131742
v 0.1621820033 0.8534129858 -0.03861798719
vn -0.8337250948 -0.07528029382 -0.5470240712
v 0.1640660018 0.8535839915 -0.0373859778
vn 0.833756566 0.075267151 0.5469778776
v 0.1645520031 0.8422279954 -0.04076296836
vn -0.8245164752 -0.05287320912 -0.5633622408
v 0.1664129943 0.8423470259 -0.03949097171
vn 0.8245941997 0.052859433 0.5632497668
v 0.1664520055 0.8307989836 -0.04274501652
vn -0.8132018447 -0.01087841205 -0.5818800926
v 0.1677359939 0.8189880252 -0.04473699629
vn -0.8013535738 0.04303275794 -0.5966411233
v 0.1682469994 0.8067560196 -0.04688998684
vn -0.7879294753 0.1107177138 -0.6057298779
v 0.1682900041 0.8308249712 -0.0414340198
vn 0.8133003712 0.01091949362 0.5817415714
v 0.1695470065 0.8188899755 -0.04339303076
vn 0.8014912009 -0.04305436835 0.59645468
v 0.1700289994 0.8065090179 -0.04552602768
vn 0.7881541848 -0.1104981676 0.6054776311
v 0.1701889932 0.8556910157 -0.05369799212
vn -0.8982743621 -0.1506678909 -0.4127982557
v 0.1722179949 0.8560249805 -0.05276397243
vn 0.8982559443 0.1505653709 0.4128756821
v 0.1728190035 0.844802022 -0.05553802848
vn -0.8936190009 -0.1253572851 -0.4309648275
v 0.1748369932 0.8450859785 -0.05456699803
vn 0.8936161995 0.1252378523 0.4310052991
v 0.1750539988 0.833616972 -0.05720699579
vn -0.8895659447 -0.08634121716 -0.4485728145
v 0.176041007 0.8568019867 -0.07001298666
vn -0.9403623343 -0.2036390752 -0.272488147
v 0.1766860038 0.8220739961 -0.05883200094
vn -0.8846119046 -0.02349731699 -0.4657355845
v 0.1770640016 0.8338059783 -0.05619498342
vn 0.8895974159 0.08626032621 0.448525995
v 0.1774960011 0.8102170229 -0.06052599102
vn -0.8772964478 0.05004013702 -0.4773330986
v 0.1781640053 0.8572620153 -0.06939899921
vn 0.9403768182 0.2034932375 0.2725471556
v 0.1786849946 0.8221290112 -0.05778397247
vn 0.8847081661 0.02343073115 0.4655560255
v 0.1788219959 0.8460879922 -0.07156000286
vn -0.9409988523 -0.1884651035 -0.2810729742
v 0.1794800013 0.8101019859 -0.05945300311
vn 0.8773976564 -0.04991772398 0.4771598876
v 0.1796610057 0.8566349745 -0.08715501428
vn -0.9628654122 -0.2389206439 -0.1257261634
v 0.1809490025 0.8465009928 -0.07092502713
vn 0.940998137 0.1884028316 0.2811172307
v 0.1812680066 0.8350870013 -0.07295202464
vn -0.9455145597 -0.1414704472 -0.2932377458
v 0.1818390042 0.8571609855 -0.08687198907
vn 0.962880373 0.2388372272 0.1257704645
v 0.1824129969 0.8459450006 -0.08842396736
vn -0.9699959755 -0.2110840976 -0.1206290126
v 0.1831319928 0.8237919807 -0.07426203042
vn -0.9485868812 -0.08554633707 -0.3047371209
v 0.1834039986 0.8354070187 -0.07229202986
vn 0.9455654621 0.141234085 0.2931874394
v 0.1841599941 0.8122950196 -0.07555601001
vn -0.9482881427 -0.0003855535761 -0.3174105883
v 0.1846030056 0.8464210033 -0.08815199882
vn 0.9700525999 0.2108170092 0.1206405833
v 0.1848420054 0.8350380659 -0.08956097066
vn -0.9769429564 -0.1798510253 -0.1150480956
v 0.1852750033 0.8239740133 -0.07357501984
vn 0.9486510158 0.08535352349 0.3045914769
v 0.1863030046 0.8122969866 -0.0748450309
vn 0.9484030604 0.000440154341 0.3170669079
v 0.1867190003 0.8239380121 -0.09058602154
vn -0.9865487218 -0.1141712591 -0.1169897467
v 0.1870509982 0.8354250193 -0.08929800242
vn 0.9769730568 0.1797065735 0.1150183305
v 0.1878139973 0.8127509952 -0.09151303023
vn -0.9919685721 -0.04257534817 -0.1191035733
v 0.1889470071 0.8241950274 -0.09032398462
vn 0.9865976572 0.1137571707 0.1169803292
v 0.190053001 0.8128349781 -0.09124000371
vn 0.9919934869 0.04254886508 0.1189056784
# mm_gid 0
g mmGroup0
f 20//20 10//10 11//11 
f 20//20 11//11 8//8 
f 20//20 8//8 18//18 
f 20//20 18//18 29//29 
f 20//20 29//29 30//30 
f 20//20 30//30 31//31 
f 20//20 31//31 21//21 
f 20//20 21//21 10//10 
f 41//41 31//31 30//30 
f 41//41 30//30 29//29 
f 41//41 29//29 39//39 
f 41//41 39//39 50//50 
f 41//41 50//50 53//53 
f 41//41 53//53 55//55 
f 41//41 55//55 43//43 
f 41//41 43//43 31//31 
f 60//60 55//55 53//53 
f 60//60 53//53 50//50 
f 60//60 50//50 57//57 
f 60//60 62//62 55//55 
f 3//3 1//1 5//5 
f 3//3 5//5 7//7 
f 3//3 7//7 8//8 
f 17//17 8//8 7//7 
f 17//17 7//7 5//5 
f 17//17 5//5 15//15 
f 17//17 15//15 25//25 
f 17//17 25//25 27//27 
f 17//17 27//27 29//29 
f 17//17 29//29 18//18 
f 17//17 18//18 8//8 
f 37//37 29//29 27//27 
f 37//37 27//27 25//25 
f 37//37 25//25 35//35 
f 37//37 35//35 40//40 
f 37//37 40//40 46//46 
f 37//37 46//46 50//50 
f 37//37 50//50 39//39 
f 37//37 39//39 29//29 
f 52//52 50//50 46//46 
f 52//52 46//46 40//40 
f 52//52 40//40 48//48 
f 52//52 57//57 50//50 
f 4//4 12//12 9//9 
f 4//4 9//9 6//6 
f 4//4 6//6 2//2 
f 63//63 61//61 54//54 
f 63//63 54//54 58//58 
f 63//63 58//58 59//59 
f 63//63 59//59 64//64 
f 45//45 59//59 58//58 
f 45//45 58//58 54//54 
f 45//45 54//54 42//42 
f 45//45 42//42 32//32 
f 45//45 32//32 33//33 
f 45//45 33//33 34//34 
f 45//45 34//34 47//47 
f 45//45 47//47 59//59 
f 23//23 34//34 33//33 
f 23//23 33//33 32//32 
f 23//23 32//32 22//22 
f 23//23 22//22 12//12 
f 23//23 12//12 14//14 
f 23//23 14//14 13//13 
f 23//23 13//13 24//24 
f 23//23 24//24 34//34 
f 19//19 12//12 22//22 
f 19//19 22//22 32//32 
f 19//19 32//32 28//28 
f 19//19 28//28 26//26 
f 19//19 26//26 16//16 
f 19//19 16//16 6//6 
f 19//19 6//6 9//9 
f 19//19 9//9 12//12 
f 56//56 51//51 44//44 
f 56//56 44//44 49//49 
f 56//56 49//49 54//54 
f 56//56 54//54 61//61 
f 38//38 54//54 49//49 
f 38//38 49//49 44//44 
f 38//38 44//44 36//36 
f 38//38 36//36 26//26 
f 38//38 26//26 28//28 
f 38//38 28//28 32//32 
f 38//38 32//32 42//42 
f 38//38 42//42 54//54 
