v -0.02616899461 0.8855479956 0.03804197907
vn 0.1688199639 0.07922196388 -0.9824579954
v -0.02501800098 0.9010519981 0.03912298009
vn 0.1581049114 0.0436013788 -0.9864591956
v -0.02405400388 0.9147760272 0.04196099564
vn -0.1439901888 0.08878783882 0.9855878949
v -0.02370899357 0.9148409963 0.03973100334
vn 0.1591519713 0.1470003128 -0.9762487411
v -0.01304200757 0.8838919997 0.04007400945
vn 0.1207735017 0.07586080581 -0.9897772074
v -0.01245000213 0.8998439908 0.04099498317
vn 0.1121837422 0.0404987447 -0.992861867
v -0.01201200485 0.9138780236 0.04365201294
vn -0.08995009959 0.207011655 0.9741946459
v -0.01176999323 0.9139339924 0.04140798748
vn 0.1157067418 0.2579695582 -0.9591994882
v 2.591900028e-09 0.8830410242 0.04104299843
vn -7.192082309e-18 0.07671172172 -0.9970533252
v 2.591900028e-09 0.8992140293 0.04188000783
vn -8.942354299e-18 0.03765675053 -0.9992907047
v 2.591900028e-09 0.9133980274 0.04444599152
vn -0.001466991846 0.09057211876 0.9958888292
v 2.591900028e-09 0.9134520292 0.04218899086
vn 0.001493214746 0.1397235692 -0.9901894331
v 0.01176999696 0.9139339924 0.04140798748
vn -0.113166675 0.2568475306 -0.959803462
v 0.01201199461 0.9138780236 0.04365201294
vn 0.08736112714 0.2085284293 0.974106729
v 0.01245000679 0.8998439908 0.04099498317
vn -0.1121837422 0.0404987745 -0.992861867
v 0.01304199733 0.8838919997 0.04007400945
vn -0.1207735091 0.07586080581 -0.9897772074
# mm_gid 0
g mmGroup0
f 11//11 14//14 13//13 
f 11//11 13//13 12//12 
f 7//7 11//11 12//12 
f 7//7 12//12 8//8 
f 3//3 7//7 8//8 
f 3//3 8//8 4//4 
f 15//15 16//16 9//9 
f 15//15 9//9 10//10 
f 15//15 10//10 12//12 
f 15//15 12//12 13//13 
f 6//6 12//12 10//10 
f 6//6 10//10 9//9 
f 6//6 9//9 5//5 
f 6//6 5//5 1//1 
f 6//6 1//1 2//2 
f 6//6 2//2 4//4 
f 6//6 4//4 8//8 
f 6//6 8//8 12//12 
