v 0.1530379951 0.9179649949 -0.05670899898
vn -0.9356626868 -0.2254080027 -0.2715263665
v 0.1550479978 0.9187909961 -0.05609700084
vn 0.830239892 0.5018380284 0.2426113784
v 0.1567479968 0.9177799821 -0.1072380021
vn -0.9630396366 -0.2175244093 0.1588641852
v 0.1568309963 0.9180030227 -0.07338401675
vn -0.9824640751 -0.1066611409 -0.1529307067
v 0.1582079977 0.9179419875 -0.09034001082
vn -0.9539297819 -0.3000020683 0.004085321911
v 0.1587139964 0.9188489914 -0.1075369865
vn 0.7069305182 0.6971105933 -0.1195243523
v 0.1588799953 0.9188899994 -0.07304696739
vn 0.756775558 0.6426580548 0.1195047051
v 0.160040006 0.9085379839 -0.05867601931
vn 0.8974414468 0.3598534763 0.2551555037
v 0.1602459997 0.9189119935 -0.09031597525
vn 0.8296655416 0.5582441092 -0.004312179051
v 0.1637690067 0.9082620144 -0.112130031
vn 0.8743691444 0.4629208148 -0.1455436349
v 0.1638280004 0.9086300135 -0.07633001357
vn 0.9126407504 0.3868917823 0.1319153607
v 0.164703995 0.8983089924 -0.06117301062
vn 0.9109845161 0.3253649771 0.2534657419
v 0.1651789993 0.9085429907 -0.09429397434
vn 0.9075297117 0.4199476838 -0.005812256597
v 0.1684550047 0.8983809948 -0.07933400571
vn 0.9259468913 0.3555004895 0.1274432093
v 0.1698160022 0.8981270194 -0.09780701995
vn 0.922114253 0.3868502378 -0.007221382111
# mm_gid 0
g mmGroup0
f 10//10 6//6 9//9 
f 10//10 9//9 13//13 
f 11//11 7//7 2//2 
f 11//11 9//9 7//7 
f 11//11 13//13 9//9 
f 11//11 15//15 13//13 
f 11//11 14//14 15//15 
f 11//11 12//12 14//14 
f 11//11 8//8 12//12 
f 11//11 2//2 8//8 
f 2//2 4//4 1//1 
f 2//2 7//7 4//4 
f 7//7 5//5 4//4 
f 7//7 9//9 5//5 
f 9//9 3//3 5//5 
f 9//9 6//6 3//3 
