v 0.1212460101 0.8812810183 0.007415023632
vn 0.5973575711 -0.01825230755 0.8017672896
v 0.1240500063 0.8677840233 0.004661021288
vn 0.5930839777 -0.05708931386 0.8031140566
v 0.1265590042 0.8541939855 0.001566002262
vn 0.587207675 -0.08718644828 0.8047270775
v 0.1303379983 0.8953549862 -0.0009399963892
vn 0.6979637742 0.09737055004 0.7094826102
v 0.1336890012 0.8832629919 -0.003094974207
vn 0.6909927726 0.03896817937 0.7218105197
v 0.1367750019 0.8707720041 -0.005775017198
vn 0.6834644675 -0.004857746419 0.7299675941
v 0.1395130008 0.8581969738 -0.008741004393
vn 0.6790934801 -0.03796423599 0.7330694199
v 0.141328007 0.8964089751 -0.01340899896
vn 0.7751879692 0.1712327302 0.6080814004
v 0.1450320035 0.8850520253 -0.01555900835
vn 0.7727745175 0.1063386202 0.6257089376
v 0.1483550072 0.873447001 -0.0181480255
vn 0.7698802352 0.05963436514 0.6353960633
v 0.150921002 0.8972960114 -0.02772598714
vn 0.8366863132 0.2360068113 0.494223386
v 0.1512770057 0.8617630005 -0.02094002627
vn 0.762598753 0.02425573952 0.6464169025
v 0.1548749954 0.8865280151 -0.02990201488
vn 0.8430934548 0.1804829389 0.5065760612
v 0.1583510041 0.8756340146 -0.03237398714
vn 0.8439068198 0.1301855594 0.5204546452
# mm_gid 0
g mmGroup0
f 9//9 5//5 6//6 
f 9//9 4//4 5//5 
f 9//9 8//8 4//4 
f 9//9 11//11 8//8 
f 9//9 13//13 11//11 
f 9//9 14//14 13//13 
f 9//9 10//10 14//14 
f 9//9 6//6 10//10 
f 12//12 6//6 7//7 
f 12//12 10//10 6//6 
f 12//12 14//14 10//10 
f 1//1 5//5 4//4 
f 1//1 6//6 5//5 
f 1//1 2//2 6//6 
f 3//3 6//6 2//2 
f 3//3 7//7 6//6 
