v 0.1541499943 0.8385019302 -0.02762402967
vn -0.7406116128 0.02338244207 -0.671526432
v 0.155697003 0.8268049955 -0.02997702733
vn -0.7268409729 0.06226653233 -0.6839774251
v 0.1566209942 0.8147410154 -0.03241297975
vn -0.7099695802 0.1123607531 -0.6952109337
v 0.1645500064 0.8422269821 -0.04076098278
vn -0.8245071173 -0.05286896974 -0.5633763075
v 0.1664510071 0.8307970166 -0.04274302721
vn -0.8131854534 -0.01085163187 -0.5819034576
v 0.1677339971 0.8189859986 -0.04473600164
vn -0.8013343811 0.04309569299 -0.5966623425
v 0.1728180051 0.8448009491 -0.05553597957
vn -0.8936085105 -0.1253650188 -0.4309842885
v 0.1750539988 0.833615005 -0.05720500648
vn -0.8895550966 -0.08633140475 -0.4485962391
v 0.1766850054 0.8220720291 -0.05883001164
vn -0.8845894337 -0.0234536659 -0.4657804668
# mm_gid 0
g mmGroup0
f 1//1 5//5 2//2 
f 1//1 4//4 5//5 
f 7//7 5//5 4//4 
f 7//7 8//8 5//5 
f 9//9 5//5 8//8 
f 9//9 6//6 5//5 
f 3//3 5//5 6//6 
f 3//3 2//2 5//5 
