v 0.1212460101 0.8812810183 0.007415023632
vn 0.5973575711 -0.01825230755 0.8017672896
v 0.1303379983 0.8953549862 -0.0009399963892
vn 0.6979637742 0.09737055004 0.7094826102
v 0.1336890012 0.8832629919 -0.003094974207
vn 0.6909927726 0.03896817937 0.7218105197
v 0.1367750019 0.8707720041 -0.005775017198
vn 0.6834644675 -0.004857746419 0.7299675941
v 0.137263 0.9073500037 -0.01193401031
vn 0.7777847052 0.2244078964 0.5871047974
v 0.141328007 0.8964089751 -0.01340899896
vn 0.7751879692 0.1712327302 0.6080814004
v 0.1450320035 0.8850520253 -0.01555900835
vn 0.7727745175 0.1063386202 0.6257089376
v 0.1483550072 0.873447001 -0.0181480255
vn 0.7698802352 0.05963436514 0.6353960633
v 0.150921002 0.8972960114 -0.02772598714
vn 0.8366863132 0.2360068113 0.494223386
v 0.1512770057 0.8617630005 -0.02094002627
vn 0.762598753 0.02425573952 0.6464169025
v 0.1548749954 0.8865280151 -0.02990201488
vn 0.8430934548 0.1804829389 0.5065760612
v 0.1583510041 0.8756340146 -0.03237398714
vn 0.8439068198 0.1301855594 0.5204546452
# mm_gid 0
g mmGroup0
f 1//1 4//4 3//3 
f 1//1 3//3 2//2 
f 5//5 2//2 6//6 
f 5//5 6//6 9//9 
f 10//10 12//12 8//8 
f 10//10 8//8 4//4 
f 7//7 4//4 8//8 
f 7//7 8//8 12//12 
f 7//7 12//12 11//11 
f 7//7 11//11 9//9 
f 7//7 9//9 6//6 
f 7//7 6//6 2//2 
f 7//7 2//2 3//3 
f 7//7 3//3 4//4 
