v 0.02370999195 0.9148409963 0.03973100334
vn -0.1595603824 0.1466316134 -0.9762374759
v 0.02405399457 0.9147760272 0.04196099564
vn 0.1443906277 0.08923831582 0.9854886532
v 0.02537400648 0.9009550214 0.04135097191
vn 0.1580161005 -0.04363023117 0.9864721298
v 0.03577399626 0.9156259894 0.03784402087
vn -0.1743750572 0.2739213705 -0.9458120465
v 0.03615700081 0.9155499935 0.04006798938
vn 0.1504832804 0.2085374594 0.9663679004
v 0.03759299964 0.9021469951 0.03706697747
vn -0.1743749976 0.04791928083 -0.98351264
v 0.03798599914 0.902041018 0.03928802535
vn 0.1743884981 -0.04795088619 0.9835087061
v 0.04812600091 0.9162340164 0.0356479995
vn -0.1936980635 0.1603804082 -0.9678632021
v 0.04855399951 0.9161530137 0.03786402196
vn 0.1860064268 0.09005212039 0.978413105
v 0.05028500035 0.9030849934 0.03474198282
vn -0.1944784522 0.0501976274 -0.9796215296
v 0.05072300509 0.9029740095 0.03695402667
vn 0.1945492774 -0.0502191782 0.9796063304
v 0.0609699972 0.916613996 0.03304303065
vn -0.2248319387 0.2870808542 -0.9311472178
v 0.06148299575 0.9165369868 0.03523997962
vn 0.2175180465 0.2213827819 0.9506185055
v 0.06324499846 0.903816998 0.03206001222
vn -0.2319035977 0.04767465219 -0.9715697765
v 0.06377000362 0.9037119746 0.03425299749
vn 0.2320603132 -0.04768624529 0.9715318084
# mm_gid 0
g mmGroup0
f 14//14 8//8 12//12 
f 14//14 10//10 8//8 
f 6//6 8//8 10//10 
f 6//6 4//4 8//8 
f 6//6 1//1 4//4 
f 2//2 4//4 1//1 
f 2//2 5//5 4//4 
f 5//5 8//8 4//4 
f 5//5 9//9 8//8 
f 9//9 12//12 8//8 
f 9//9 13//13 12//12 
f 7//7 2//2 3//3 
f 7//7 5//5 2//2 
f 7//7 9//9 5//5 
f 7//7 11//11 9//9 
f 15//15 9//9 11//11 
f 15//15 13//13 9//9 
