v -0.1212459877 0.8812810183 0.007415026892
vn -0.5973576903 -0.01825241558 0.80176723
v -0.1182810143 0.894208014 0.009599005803
vn -0.6070997715 0.03158579394 0.7939975858
v -0.1106300056 0.8646309972 0.01309602521
vn -0.4928860664 -0.09630458057 0.8647478223
v -0.1081330106 0.8792120218 0.01590497419
vn -0.4968451262 -0.0639044717 0.8654831648
v -0.1055269837 0.8930379748 0.01812297665
vn -0.5008118749 -0.0186858736 0.8653544188
v -0.09889101237 0.8456580043 0.01621898264
vn -0.3983917534 -0.1501815915 0.9048367143
v -0.09696599841 0.8614640236 0.01946197264
vn -0.3964175582 -0.1239957809 0.9096582532
v -0.09477499127 0.8771619797 0.02230701223
vn -0.3929909766 -0.0935401693 0.9147722721
v -0.09244500101 0.8919150233 0.02454897948
vn -0.3943977654 -0.05508537591 0.9172872901
v -0.09010499716 0.9048889875 0.02598000132
vn -0.3950270712 -0.01434477046 0.9185574651
v -0.08475899696 0.841350019 0.02091702819
vn -0.3205645978 -0.1643338948 0.9328626394
v -0.08316899836 0.8582839966 0.02419801988
vn -0.312486589 -0.1386358738 0.9397511482
v -0.08128698915 0.8751050234 0.02706298605
vn -0.307864964 -0.1109686419 0.9449365735
v -0.08059299737 0.8753529787 0.02492899634
vn 0.3077086508 0.1110564247 -0.9449771643
v -0.07919000834 0.8907920122 0.0293119736
vn -0.3028345108 -0.07416135073 0.9501533508
v -0.07850500196 0.8909549713 0.02716699429
vn 0.3026407659 0.074230887 -0.9502096176
v -0.0769539997 0.9043260217 0.03074299544
vn -0.3010134101 -0.03732940182 0.9528890252
v -0.07627499849 0.9044070244 0.02859099396
vn 0.3008236289 0.03731856495 -0.9529493451
v -0.07464800775 0.9167839885 0.03176500648
vn -0.2954197228 0.1108879521 0.9489104748
v -0.07398299128 0.9168350101 0.02960797772
vn 0.2972156703 0.1568900049 -0.9418324828
v -0.07060001045 0.837059021 0.02442596853
vn -0.2606756687 -0.1710692495 0.9501491785
v -0.06934800744 0.8550930023 0.02774198167
vn -0.253331691 -0.1447688043 0.9564858079
v -0.06877700239 0.8554199934 0.02558198199
vn 0.2532678545 0.1447818279 -0.9565007091
v -0.06778099388 0.8730170131 0.03061502427
vn -0.2445968688 -0.1179305166 0.9624264836
v -0.06722800434 0.873281002 0.02844198048
vn 0.244474709 0.1179765835 -0.9624518752
v -0.06591599435 0.8896250129 0.03284997493
vn -0.2379624844 -0.08359343559 0.9676703811
v -0.06537900865 0.8898090124 0.03066500463
vn 0.2377949208 0.08364100754 -0.9677074552
v -0.06377001107 0.9037119746 0.03425299749
vn -0.2320602387 -0.0476863347 0.9715318084
v -0.06324499846 0.903816998 0.03206001222
vn 0.2319036126 0.04767461494 -0.9715697765
v -0.0614830032 0.9165369868 0.03523997962
vn -0.2165153921 0.2191276699 0.9513696432
v -0.06097000092 0.916613996 0.03304303437
vn 0.2236789465 0.2892718315 -0.9307467937
v -0.05713700131 0.8149799705 0.02349399775
vn -0.2333776206 -0.2100275904 0.9494331479
v -0.05649100244 0.8328099847 0.02717798389
vn -0.2285623401 -0.1731898636 0.9580003023
v -0.05555600673 0.8518850207 0.03054299392
vn -0.2194408923 -0.1459154189 0.9646524787
v -0.05506100506 0.8522139788 0.02836497501
vn 0.2194205374 0.1459138244 -0.9646573663
v -0.05430399999 0.8708639741 0.03341602907
vn -0.2110067457 -0.1184315085 0.9702835083
v -0.05382800102 0.8711299896 0.03122496605
vn 0.2109663486 0.1184268966 -0.9702928662
v -0.05270299688 0.8883559704 0.03561502695
vn -0.2022265941 -0.08505736291 0.9756380916
v -0.05224699154 0.888544023 0.03341099992
vn 0.202175945 0.08507730812 -0.9756468534
v -0.05072299764 0.9029740095 0.03695402294
vn -0.1945492029 -0.05021924153 0.97960639
v -0.05028500035 0.9030849934 0.03474198282
vn 0.1944784522 0.05019767955 -0.9796215296
v -0.04855400324 0.9161530137 0.03786402196
vn -0.1852759272 0.08829907328 0.9787114263
v -0.04812600464 0.9162340164 0.03564799577
vn 0.1929033995 0.1622879207 -0.9677039385
v -0.04294199497 0.8100619912 0.02573299408
vn -0.2151346803 -0.2190282345 0.9517056942
v -0.04250899702 0.8286290169 0.02960400097
vn -0.2087911516 -0.1770848632 0.9617937207
v -0.04203700274 0.8290299773 0.02743201144
vn 0.2088048607 0.17705594 -0.9617961049
v -0.04184500873 0.8486549854 0.03304998577
vn -0.2031782568 -0.1448703259 0.9683651924
v -0.04138799384 0.8489819765 0.03086402267
vn 0.2031856477 0.1448812038 -0.9683620334
v -0.04089999571 0.8686109781 0.0359230116
vn -0.1932925284 -0.1164401099 0.9742072225
v -0.04046400264 0.8688719869 0.03372302279
vn 0.1932975352 0.1164348349 -0.9742068648
v -0.03962999955 0.8869289756 0.03805701062
vn -0.1834224612 -0.08261208236 0.9795567393
v -0.03921600431 0.8871110082 0.0358450301
vn 0.183442086 0.08261220902 -0.9795531034
v -0.03798599541 0.902041018 0.03928802162
vn -0.174388513 -0.04795089364 0.9835087061
v -0.03759299964 0.9021469951 0.03706697375
vn 0.1743749827 0.04791931063 -0.98351264
v -0.03615699708 0.9155499935 0.04006798938
vn -0.1493519694 0.2066102773 0.9669571519
v -0.03577399999 0.9156259894 0.03784402087
vn 0.1731234193 0.2762032449 -0.9453782439
v -0.02875999548 0.8052700162 0.02767398953
vn -0.1977185458 -0.233811155 0.9519662261
v -0.02849600464 0.8244950175 0.03178598732
vn -0.1964821666 -0.1807142347 0.9637100697
v -0.02806899697 0.8453999758 0.03534001857
vn -0.187882185 -0.144898966 0.9714446068
v -0.02805699781 0.8249049783 0.02961003035
vn 0.1965925545 0.1806668639 -0.9636964798
v -0.02764500305 0.8457270265 0.0331469737
vn 0.1879864633 0.1448889822 -0.9714258909
v -0.02743299864 0.8662750125 0.03821100667
vn -0.1795023829 -0.1134677231 0.9771918654
v -0.02703000791 0.8665300012 0.03600398824
vn 0.1795969158 0.113462694 -0.9771751165
v -0.02654899471 0.8853750229 0.04026097804
vn -0.1687227935 -0.07921319455 0.9824754
v -0.02616899461 0.8855479956 0.03804197535
vn 0.168817848 0.07922291756 -0.9824582934
v -0.02537400275 0.9009550214 0.04135097563
vn -0.1580161005 -0.04363031313 0.9864721298
v -0.02501800098 0.9010519981 0.03912298009
vn 0.1581037641 0.04360692203 -0.986459136
v -0.02405400388 0.9147760272 0.04196099192
vn -0.1439902782 0.0887915194 0.9855875969
v -0.02371000312 0.9148409963 0.03973100334
vn 0.1591453105 0.1470027417 -0.9762494564
v -0.0144200027 0.8005599976 0.02941797301
vn -0.1467374116 -0.2503687739 0.9569658041
v -0.01429500617 0.8203830123 0.03381001204
vn -0.1401047111 -0.1873046607 0.9722590446
v -0.0140859969 0.8421199918 0.0374869816
vn -0.1367730051 -0.1458393335 0.9798081517
v -0.0139779998 0.82081002 0.03161498904
vn 0.1408073902 0.1872054785 -0.9721766114
v -0.01377999689 0.8424509764 0.03527500108
vn 0.1374269724 0.1458126307 -0.9797206521
v -0.01376700401 0.8638730049 0.04035697877
vn -0.1282240748 -0.1125072986 0.9853429198
v -0.01347599924 0.8641250134 0.03813200817
vn 0.1288219094 0.1124914736 -0.9852667451
v -0.01331300195 0.8837239742 0.04230901971
vn -0.1202674583 -0.07587716728 0.9898375869
v -0.01304200757 0.8838919997 0.04007400945
vn 0.1208048537 0.07586093247 -0.9897733331
v -0.01270199567 0.8997560143 0.04323703423
vn -0.111726433 -0.04053668678 0.9929118752
v -0.01245000213 0.8998449445 0.04099498689
vn 0.1121914759 0.04049040005 -0.9928613305
v -0.01201200485 0.9138780236 0.04365201294
vn -0.08994975686 0.2070115209 0.9741947055
v -0.01176899951 0.9139339924 0.0414079912
vn 0.1157023981 0.2579777837 -0.9591978192
v 2.481801431e-09 0.7982259989 0.03024102934
vn 1.419901347e-17 -0.2575253844 0.9662715197
v 2.481801431e-09 0.8183339834 0.03478097916
vn 0 -0.1924157292 0.9813135266
v 2.481801431e-09 0.8404740095 0.03852500767
vn -1.356276682e-17 -0.147864297 0.9890076518
v 2.481801431e-09 0.8408100009 0.03629297763
vn 0 0.1478228271 -0.9890138507
v 2.481801431e-09 0.862654984 0.04139400274
vn -2.883992709e-18 -0.1117950231 0.9937312603
v 2.481801431e-09 0.8629099727 0.0391509831
vn 5.915842299e-18 0.1117902175 -0.9937318563
v 2.481801431e-09 0.882874012 0.0432950221
vn 1.753209102e-18 -0.07673452049 0.997051537
v 2.481801431e-09 0.8830429912 0.04104399681
vn 1.078839891e-17 0.07669853419 -0.9970543385
v 2.481801431e-09 0.8991270065 0.04413603619
vn 0 -0.03768035769 0.9992898703
v 2.481801431e-09 0.899214983 0.04188001156
vn 4.471471626e-18 0.03762666509 -0.9992918372
v 2.481801431e-09 0.9133980274 0.04444598407
vn -0.001466991147 0.0905700326 0.995889008
v 2.481801431e-09 0.9134520292 0.04218899086
vn 0.001493374119 0.1397296935 -0.990188539
v 0.0117690051 0.9139339924 0.0414079912
vn -0.1131625026 0.2568610013 -0.959800303
v 0.01201199461 0.9138780236 0.04365201294
vn 0.08736071736 0.2085422724 0.9741038084
v 0.01245000679 0.8998449445 0.04099498689
vn -0.1121914983 0.04049041495 -0.9928613305
v 0.01270200033 0.8997560143 0.04323703423
vn 0.1117264479 -0.04053664207 0.9929118752
v 0.01304199733 0.8838919997 0.04007400945
vn -0.1208048537 0.07586093247 -0.9897733331
v 0.01331300754 0.8837239742 0.04230901971
vn 0.1202674657 -0.07587721944 0.9898375273
v 0.01347600482 0.8641250134 0.03813200817
vn -0.128821969 0.1124914661 -0.9852667451
v 0.01376699284 0.8638730049 0.04035697877
vn 0.1282240748 -0.1125072986 0.9853429198
v 0.01378000155 0.8424509764 0.03527500108
vn -0.1374270469 0.1458126307 -0.9797205925
v 0.01408600155 0.8421199918 0.0374869816
vn 0.1367730051 -0.1458393335 0.9798081517
v 0.01429499499 0.8203830123 0.03381001204
vn 0.1401047409 -0.1873046607 0.9722590446
v 0.02370999195 0.9148409963 0.03973100334
vn -0.1595603824 0.1466316134 -0.9762374759
v 0.02405399457 0.9147760272 0.04196099192
vn 0.1443906277 0.08923831582 0.9854886532
v 0.02501800656 0.9010519981 0.03912298009
vn -0.158103779 0.04360684007 -0.986459136
v 0.02537400648 0.9009550214 0.04135097563
vn 0.1580161005 -0.04363023117 0.9864721298
v 0.02616899833 0.8855479956 0.03804197535
vn -0.168817848 0.07922296226 -0.9824582934
v 0.02654900029 0.8853750229 0.04026097804
vn 0.1687227935 -0.07921320945 0.9824754
v 0.02702999674 0.8665300012 0.03600398824
vn -0.1795969903 0.1134627461 -0.9771750569
v 0.02743300423 0.8662750125 0.03821100667
vn 0.1795022637 -0.1134677306 0.977191925
v 0.02764499374 0.8457270265 0.0331469737
vn -0.1879864633 0.1448889375 -0.9714258909
v 0.02806900255 0.8453999758 0.03534001857
vn 0.1878821701 -0.1448989958 0.9714446068
v 0.02849599347 0.8244950175 0.03178598732
vn 0.1964820474 -0.1807142347 0.9637101293
v 0.03577399626 0.9156259894 0.03784402087
vn -0.1743750572 0.2739213705 -0.9458120465
v 0.03615700081 0.9155499935 0.04006798938
vn 0.1504832804 0.2085374594 0.9663679004
v 0.03759299964 0.9021469951 0.03706697375
vn -0.1743749976 0.04791928083 -0.98351264
v 0.03798599914 0.902041018 0.03928802162
vn 0.1743884981 -0.04795088619 0.9835087061
v 0.03921600059 0.8871110082 0.0358450301
vn -0.183442086 0.08261223137 -0.9795530438
v 0.03962999582 0.8869289756 0.03805701062
vn 0.1834224761 -0.08261206001 0.9795567393
v 0.04046399891 0.8688719869 0.03372302279
vn -0.1932974905 0.1164348349 -0.9742068648
v 0.04090000317 0.8686109781 0.0359230116
vn 0.193292588 -0.1164401099 0.9742072225
v 0.04138800129 0.8489819765 0.03086402267
vn -0.203185603 0.1448812038 -0.9683620334
v 0.04184500501 0.8486549854 0.03304998577
vn 0.2031783164 -0.1448703408 0.9683651924
v 0.04250900075 0.8286290169 0.02960400097
vn 0.2087911218 -0.1770848334 0.9617937803
v 0.04812600091 0.9162340164 0.03564799577
vn -0.1936980635 0.1603804082 -0.9678632021
v 0.04855399951 0.9161530137 0.03786402196
vn 0.1860064268 0.09005212039 0.978413105
v 0.05028500035 0.9030849934 0.03474198282
vn -0.1944784522 0.0501976274 -0.9796215296
v 0.05072300509 0.9029740095 0.03695402294
vn 0.1945492774 -0.0502191782 0.9796063304
v 0.05224699527 0.888544023 0.03341099992
vn -0.2021759599 0.08507732302 -0.9756468534
v 0.05270300061 0.8883559704 0.03561502695
vn 0.2022265792 -0.08505737036 0.9756380916
v 0.05430399626 0.8708639741 0.03341602907
vn 0.2110067457 -0.1184315458 0.9702835083
v 0.055556003 0.8518850207 0.03054299392
vn 0.2194409221 -0.1459154338 0.9646524787
v 0.05649100244 0.8328099847 0.02717798389
vn 0.2285624146 -0.1731898189 0.9580002427
v 0.06097000092 0.916613996 0.03304303437
vn -0.2248319387 0.2870808542 -0.9311472178
v 0.06148299575 0.9165369868 0.03523997962
vn 0.2175180465 0.2213827819 0.9506185055
v 0.06377000362 0.9037119746 0.03425299749
vn 0.2320603132 -0.04768624529 0.9715318084
v 0.0659160018 0.8896250129 0.03284997493
vn 0.2379625738 -0.08359330893 0.9676703811
v 0.06778100133 0.8730170131 0.03061502427
vn 0.2445968539 -0.1179305688 0.9624264836
v 0.06934799999 0.8550930023 0.02774198167
vn 0.253331691 -0.1447689086 0.9564857483
v 0.070600003 0.837059021 0.02442596853
vn 0.2606756687 -0.1710692346 0.9501491785
v 0.0769539997 0.9043260217 0.03074299544
vn 0.3010133505 -0.03732941672 0.9528890252
v 0.07919000089 0.8907920122 0.0293119736
vn 0.3028345108 -0.07416125387 0.9501533508
v 0.0812869966 0.8751050234 0.02706298605
vn 0.3078649342 -0.1109685749 0.9449365735
v 0.08316899836 0.8582839966 0.02419801988
vn 0.3124865592 -0.138635993 0.9397511482
v 0.09010499716 0.9048889875 0.02598000132
vn 0.3950269222 -0.01434475929 0.9185575247
v 0.09244500101 0.8919150233 0.02454897948
vn 0.3943974972 -0.05508533493 0.9172874093
v 0.09477499872 0.8771619797 0.02230701223
vn 0.3929910362 -0.093540214 0.9147722721
# mm_gid 0
g mmGroup0
f 119//119 121//121 110//110 
f 119//119 132//132 121//121 
f 119//119 130//130 132//132 
f 119//119 128//128 130//130 
f 119//119 117//117 128//128 
f 119//119 106//106 117//117 
f 119//119 108//108 106//106 
f 119//119 110//110 108//108 
f 97//97 99//99 90//90 
f 97//97 110//110 99//99 
f 97//97 108//108 110//110 
f 97//97 106//106 108//108 
f 97//97 95//95 106//106 
f 97//97 94//94 95//95 
f 97//97 92//92 94//94 
f 97//97 90//90 92//92 
f 80//80 78//78 65//65 
f 80//80 90//90 78//78 
f 80//80 92//92 90//90 
f 80//80 94//94 92//92 
f 80//80 82//82 94//94 
f 80//80 69//69 82//82 
f 80//80 67//67 69//69 
f 80//80 65//65 67//67 
f 54//54 52//52 39//39 
f 54//54 65//65 52//52 
f 54//54 67//67 65//65 
f 54//54 69//69 67//67 
f 54//54 56//56 69//69 
f 54//54 43//43 56//56 
f 54//54 41//41 43//43 
f 54//54 39//39 41//41 
f 29//29 20//20 31//31 
f 29//29 18//18 20//20 
f 29//29 16//16 18//18 
f 29//29 27//27 16//16 
f 29//29 39//39 27//27 
f 29//29 41//41 39//39 
f 29//29 43//43 41//41 
f 29//29 31//31 43//43 
f 30//30 43//43 31//31 
f 30//30 42//42 43//43 
f 42//42 56//56 43//43 
f 42//42 55//55 56//56 
f 55//55 69//69 56//56 
f 55//55 68//68 69//69 
f 68//68 82//82 69//69 
f 68//68 81//81 82//82 
f 81//81 94//94 82//82 
f 81//81 93//93 94//94 
f 93//93 95//95 94//94 
f 93//93 96//96 95//95 
f 96//96 106//106 95//95 
f 96//96 107//107 106//106 
f 107//107 117//117 106//106 
f 107//107 118//118 117//117 
f 118//118 128//128 117//117 
f 118//118 129//129 128//128 
f 129//129 137//137 128//128 
f 129//129 138//138 137//137 
f 19//19 31//31 20//20 
f 19//19 30//30 31//31 
f 28//28 26//26 38//38 
f 28//28 15//15 26//26 
f 28//28 17//17 15//15 
f 28//28 19//19 17//17 
f 28//28 30//30 19//19 
f 28//28 42//42 30//30 
f 28//28 40//40 42//42 
f 28//28 38//38 40//40 
f 53//53 51//51 64//64 
f 53//53 38//38 51//51 
f 53//53 40//40 38//38 
f 53//53 42//42 40//40 
f 53//53 55//55 42//42 
f 53//53 68//68 55//55 
f 53//53 66//66 68//68 
f 53//53 64//64 66//66 
f 79//79 77//77 89//89 
f 79//79 64//64 77//77 
f 79//79 66//66 64//64 
f 79//79 68//68 66//66 
f 79//79 81//81 68//68 
f 79//79 93//93 81//81 
f 79//79 91//91 93//93 
f 79//79 89//89 91//91 
f 98//98 100//100 111//111 
f 98//98 89//89 100//100 
f 98//98 91//91 89//89 
f 98//98 93//93 91//91 
f 98//98 96//96 93//93 
f 98//98 107//107 96//96 
f 98//98 109//109 107//107 
f 98//98 111//111 109//109 
f 120//120 122//122 133//133 
f 120//120 111//111 122//122 
f 120//120 109//109 111//111 
f 120//120 107//107 109//109 
f 120//120 118//118 107//107 
f 120//120 129//129 118//118 
f 120//120 131//131 129//129 
f 120//120 133//133 131//131 
f 139//139 140//140 145//145 
f 139//139 133//133 140//140 
f 139//139 131//131 133//133 
f 139//139 129//129 131//131 
f 139//139 138//138 129//129 
f 139//139 145//145 144//144 
f 148//148 145//145 149//149 
f 148//148 144//144 145//145 
f 10//10 17//17 19//19 
f 10//10 15//15 17//17 
f 10//10 9//9 15//15 
f 10//10 5//5 9//9 
f 8//8 7//7 12//12 
f 8//8 3//3 7//7 
f 8//8 4//4 3//3 
f 8//8 5//5 4//4 
f 8//8 9//9 5//5 
f 8//8 15//15 9//9 
f 8//8 13//13 15//15 
f 8//8 12//12 13//13 
f 24//24 22//22 34//34 
f 24//24 12//12 22//22 
f 24//24 13//13 12//12 
f 24//24 15//15 13//13 
f 24//24 26//26 15//15 
f 24//24 38//38 26//26 
f 24//24 36//36 38//38 
f 24//24 34//34 36//36 
f 49//49 47//47 59//59 
f 49//49 34//34 47//47 
f 49//49 36//36 34//34 
f 49//49 38//38 36//36 
f 49//49 51//51 38//38 
f 49//49 64//64 51//51 
f 49//49 62//62 64//64 
f 49//49 59//59 62//62 
f 75//75 72//72 85//85 
f 75//75 59//59 72//72 
f 75//75 62//62 59//59 
f 75//75 64//64 62//62 
f 75//75 77//77 64//64 
f 75//75 89//89 77//77 
f 75//75 87//87 89//89 
f 75//75 85//85 87//87 
f 102//102 104//104 115//115 
f 102//102 85//85 104//104 
f 102//102 87//87 85//85 
f 102//102 89//89 87//87 
f 102//102 100//100 89//89 
f 102//102 111//111 100//100 
f 102//102 113//113 111//111 
f 102//102 115//115 113//113 
f 124//124 126//126 135//135 
f 124//124 115//115 126//126 
f 124//124 113//113 115//115 
f 124//124 111//111 113//113 
f 124//124 122//122 111//111 
f 124//124 133//133 122//122 
f 124//124 134//134 133//133 
f 124//124 135//135 134//134 
f 141//141 142//142 147//147 
f 141//141 135//135 142//142 
f 141//141 134//134 135//135 
f 141//141 133//133 134//134 
f 141//141 140//140 133//133 
f 141//141 145//145 140//140 
f 141//141 146//146 145//145 
f 141//141 147//147 146//146 
f 150//150 145//145 146//146 
f 150//150 149//149 145//145 
f 1//1 5//5 2//2 
f 1//1 4//4 5//5 
f 6//6 12//12 7//7 
f 6//6 11//11 12//12 
f 21//21 12//12 11//11 
f 21//21 22//22 12//12 
f 21//21 34//34 22//22 
f 21//21 33//33 34//34 
f 45//45 44//44 57//57 
f 45//45 32//32 44//44 
f 45//45 33//33 32//32 
f 45//45 34//34 33//33 
f 45//45 47//47 34//34 
f 45//45 59//59 47//47 
f 45//45 58//58 59//59 
f 45//45 57//57 58//58 
f 71//71 70//70 83//83 
f 71//71 57//57 70//70 
f 71//71 58//58 57//57 
f 71//71 59//59 58//58 
f 71//71 72//72 59//59 
f 71//71 85//85 72//72 
f 71//71 84//84 85//85 
f 71//71 83//83 84//84 
f 105//105 85//85 84//84 
f 105//105 104//104 85//85 
f 105//105 115//115 104//104 
f 105//105 116//116 115//115 
f 127//127 115//115 116//116 
f 127//127 126//126 115//115 
f 127//127 135//135 126//126 
f 127//127 136//136 135//135 
f 143//143 135//135 136//136 
f 143//143 142//142 135//135 
f 123//123 125//125 114//114 
f 123//123 121//121 132//132 
f 123//123 110//110 121//121 
f 123//123 112//112 110//110 
f 123//123 114//114 112//112 
f 101//101 103//103 86//86 
f 101//101 114//114 103//103 
f 101//101 112//112 114//114 
f 101//101 110//110 112//112 
f 101//101 99//99 110//110 
f 101//101 90//90 99//99 
f 101//101 88//88 90//90 
f 101//101 86//86 88//88 
f 76//76 74//74 61//61 
f 76//76 86//86 74//74 
f 76//76 88//88 86//86 
f 76//76 90//90 88//88 
f 76//76 78//78 90//90 
f 76//76 65//65 78//78 
f 76//76 63//63 65//65 
f 76//76 61//61 63//63 
f 50//50 48//48 35//35 
f 50//50 61//61 48//48 
f 50//50 63//63 61//61 
f 50//50 65//65 63//63 
f 50//50 52//52 65//65 
f 50//50 39//39 52//52 
f 50//50 37//37 39//39 
f 50//50 35//35 37//37 
f 25//25 35//35 23//23 
f 25//25 37//37 35//35 
f 25//25 39//39 37//37 
f 25//25 27//27 39//39 
f 25//25 16//16 27//27 
f 25//25 14//14 16//16 
f 73//73 74//74 86//86 
f 73//73 61//61 74//74 
f 73//73 60//60 61//61 
f 46//46 61//61 60//60 
f 46//46 48//48 61//61 
f 46//46 35//35 48//48 
