v 0.02370899916 0.9148409963 0.03973100334
vn -0.1595667899 0.146623835 -0.9762375951
v 0.02405399457 0.9147760272 0.04196099564
vn 0.1443900317 0.0892456919 0.9854880571
v 0.02501800656 0.9010519981 0.03912298009
vn -0.1581049412 0.04360138625 -0.9864591956
v 0.02537400648 0.9009550214 0.04135097191
vn 0.1580161005 -0.04363023117 0.9864721298
v 0.03577300161 0.9156259894 0.03784402087
vn -0.1743512154 0.2739366591 -0.9458119869
v 0.03615700081 0.9155499935 0.04006798938
vn 0.1504840702 0.2085177451 0.9663720131
v 0.03759299964 0.9021469951 0.03706697747
vn -0.1743693203 0.0479199402 -0.9835135937
v 0.03798599914 0.902041018 0.03928802535
vn 0.1743884981 -0.04795088619 0.9835087061
v 0.04812299833 0.9162340164 0.03564899787
vn -0.1936910748 0.1603709459 -0.9678661823
v 0.04855399951 0.9161530137 0.03786402196
vn 0.1860103011 0.09003259987 0.9784141779
v 0.05028500035 0.9030849934 0.03474198282
vn -0.1944738775 0.05021255836 -0.9796216488
v 0.05072300509 0.9029740095 0.03695402667
vn 0.1945492774 -0.0502191782 0.9796063304
v 0.06096399948 0.9166129827 0.03304402158
vn -0.2247848809 0.2871073782 -0.9311504364
v 0.06148299575 0.9165369868 0.03523997962
vn 0.2175176591 0.2213589847 0.9506241679
v 0.06324599683 0.9038180113 0.03206001222
vn -0.2318883836 0.04767897725 -0.9715732336
v 0.06377000362 0.9037119746 0.03425299749
vn 0.2320603132 -0.04768624529 0.9715318084
# mm_gid 0
g mmGroup0
f 16//16 14//14 10//10 
f 16//16 10//10 12//12 
f 8//8 12//12 10//10 
f 8//8 10//10 6//6 
f 8//8 6//6 2//2 
f 8//8 2//2 4//4 
f 10//10 14//14 13//13 
f 10//10 13//13 9//9 
f 6//6 10//10 9//9 
f 6//6 9//9 5//5 
f 2//2 6//6 5//5 
f 2//2 5//5 1//1 
f 15//15 11//11 9//9 
f 15//15 9//9 13//13 
f 7//7 9//9 11//11 
f 7//7 3//3 1//1 
f 7//7 1//1 5//5 
f 7//7 5//5 9//9 
