v 0.1795459986 0.7508950233 -0.1384629905
vn -0.9003590941 -0.03289468214 0.4339025915
v 0.1797219962 0.7306640148 -0.1399149895
vn -0.9066000581 -0.03573586792 0.4204751253
v 0.1797699928 0.7102900147 -0.1414310187
vn -0.9120852947 -0.02360084467 0.4093207121
v 0.1842029989 0.7128069997 -0.1279500127
vn -0.9764268398 -0.007276274264 0.2157259732
v 0.1843480021 0.733889997 -0.1263310313
vn -0.9736629128 -0.01035032142 0.2277572304
v 0.1845349967 0.7549120188 -0.1246469691
vn -0.9695755243 -0.006378246006 0.2447092235
v 0.1847089976 0.7717459798 -0.1239140108
vn -0.9633103609 0.002507245867 0.2683782578
v 0.1847169995 0.7356200218 -0.0981169939
vn -0.9795434475 0.04073836282 -0.1970661283
v 0.1853689998 0.7573109865 -0.09597399831
vn -0.9805232286 0.05822964758 -0.1875727475
v 0.1858129948 0.7141720057 -0.1139480248
vn -0.9999383688 0.009415605105 0.0058841235
v 0.1861129999 0.7356920242 -0.1122319922
vn -0.999776423 0.0174023062 0.01200851053
v 0.1863369942 0.7748240232 -0.09441500157
vn -0.9829037786 0.07279953361 -0.1691166162
v 0.1866060048 0.7572309971 -0.1103250161
vn -0.9992451668 0.02686654963 0.02805899084
v 0.187285006 0.7744730115 -0.1091880053
vn -0.9979404807 0.03888593987 0.05101700127
# mm_gid 0
g mmGroup0
f 7//7 6//6 13//13 
f 7//7 1//1 6//6 
f 7//7 13//13 14//14 
f 12//12 13//13 9//9 
f 12//12 14//14 13//13 
f 5//5 4//4 10//10 
f 5//5 3//3 4//4 
f 5//5 2//2 3//3 
f 5//5 1//1 2//2 
f 5//5 6//6 1//1 
f 5//5 13//13 6//6 
f 5//5 11//11 13//13 
f 5//5 10//10 11//11 
f 8//8 11//11 10//10 
f 8//8 13//13 11//11 
f 8//8 9//9 13//13 
