v -0.07001000643 0.8374459743 0.02228098735
vn 0.2605949342 0.171050936 -0.9501746297
v -0.06877700239 0.8554199934 0.02558198199
vn 0.2532605827 0.1447893977 -0.9565014839
v -0.06722901016 0.8732820153 0.02844197676
vn 0.2444706559 0.1179804206 -0.9624524713
v -0.06537999958 0.8898090124 0.03066500276
vn 0.2377866507 0.08364225179 -0.9677094221
v -0.05597700179 0.8332039714 0.02501499653
vn 0.2285154462 0.1731841862 -0.9580124617
v -0.05506100506 0.8522139788 0.02836497501
vn 0.2194218189 0.1459168941 -0.9646565914
v -0.05382800102 0.8711299896 0.03122496605
vn 0.2109632343 0.1184273735 -0.9702935219
v -0.05224699154 0.888544023 0.03341099992
vn 0.2021704167 0.08507814258 -0.9756479263
v -0.04203700274 0.8290299773 0.02743201144
vn 0.2088089287 0.1770601124 -0.961794436
v -0.04138799384 0.8489819765 0.03086402267
vn 0.2031858712 0.1448813677 -0.9683619738
v -0.04046400264 0.8688719869 0.03372302279
vn 0.1932975501 0.11643482 -0.9742068648
v -0.03921600431 0.8871110082 0.0358450301
vn 0.183441788 0.08261202276 -0.9795531631
# mm_gid 0
g mmGroup0
f 1//1 2//2 6//6 
f 1//1 6//6 5//5 
f 9//9 5//5 6//6 
f 9//9 6//6 10//10 
f 3//3 4//4 8//8 
f 3//3 8//8 7//7 
f 3//3 7//7 6//6 
f 3//3 6//6 2//2 
f 11//11 6//6 7//7 
f 11//11 7//7 8//8 
f 11//11 8//8 12//12 
f 11//11 10//10 6//6 
