v -0.001393499901 0.1040169969 0.0049774996
vn -0.7555417418 0.6161962152 -0.2223935425
v -0.001294879941 0.1040749997 0.004727500025
vn -0.7719831467 0.634852469 -0.03169195354
v -0.001230999827 0.1043249965 0.005227500107
vn -0.7294430137 0.6447038651 -0.2286259681
v -0.00114349986 0.1042760015 0.004727500025
vn -0.7836551666 0.6201087236 0.03673962504
v -0.00114349986 0.1043249965 0.0049774996
vn -0.7724733353 0.6076772213 -0.1844269633
v -0.00114349986 0.1043249965 0.004977980163
vn -0.6983259916 0.6726055741 -0.2448316813
v -0.00114349986 0.1044159979 0.005227500107
vn -0.7931491733 0.583273828 -0.1752315015
v -0.00114349986 0.104474999 0.005477499682
vn -0.7561343908 0.6392152309 -0.1402307153
v -0.00114335015 0.1043249965 0.0049774996
vn -0.8167342544 0.5495873094 -0.1757811606
v -0.001113950158 0.1043249965 0.004727500025
vn -0.7855628729 0.6126126051 -0.08715925366
v -0.001047139871 0.1045750007 0.005227500107
vn -0.8432762623 0.5202198625 -0.135116443
v -0.0009698938811 0.1045750007 0.0049774996
vn -0.7806239724 0.5802538991 -0.2322319448
# mm_gid 0
g mmGroup0
f 4//4 2//2 5//5 
f 5//5 9//9 10//10 
f 5//5 10//10 4//4 
f 9//9 12//12 10//10 
f 5//5 2//2 1//1 
f 1//1 3//3 5//5 
f 3//3 6//6 5//5 
f 5//5 6//6 9//9 
f 6//6 3//3 7//7 
f 9//9 6//6 7//7 
f 11//11 9//9 7//7 
f 12//12 9//9 11//11 
f 7//7 3//3 8//8 
f 8//8 11//11 7//7 
