v -0.0423184 0.07707499713 -0.001772500575
vn -0.9294183254 -0.3473251462 -0.1246868223
v -0.04218190163 0.07682500035 -0.00202250015
vn -0.8833935261 -0.4538331628 -0.1168390214
v -0.0421781987 0.07707499713 -0.002772499807
vn -0.9352058768 -0.3267625868 -0.1364411563
v -0.04214350134 0.07682500035 -0.002262200229
vn -0.8446185589 -0.5180299282 -0.1351460218
v -0.04214350134 0.07682870328 -0.002272500657
vn -0.9166007042 -0.3761316538 -0.1355291009
v -0.04214350134 0.07691159844 -0.002522500232
vn -0.9100443721 -0.3933817744 -0.1306523234
v -0.04214189947 0.07682500035 -0.002272500657
vn -0.8563797474 -0.500285089 -0.1277833134
v -0.04206680134 0.07682500035 -0.002772499807
vn -0.8811891079 -0.4536415637 -0.1330982
v -0.04202790186 0.07657500356 -0.00202250015
vn -0.8163151145 -0.566136539 -0.1145385876
v -0.04191669822 0.07657500356 -0.002772499807
vn -0.8110023737 -0.5745254755 -0.1104339361
# mm_gid 0
g mmGroup0
f 8//8 6//6 3//3 
f 3//3 6//6 1//1 
f 6//6 5//5 1//1 
f 7//7 8//8 10//10 
f 7//7 6//6 8//8 
f 6//6 7//7 5//5 
f 7//7 10//10 9//9 
f 9//9 2//2 4//4 
f 7//7 9//9 4//4 
f 4//4 2//2 5//5 
f 4//4 5//5 7//7 
f 5//5 2//2 1//1 
