v -0.03444549814 0.05657499656 -0.0100224996
vn 0.2807530761 -0.9596541524 -0.0155427428
v -0.03441369906 0.05657499656 -0.009772500023
vn 0.2759133875 -0.9606822729 -0.03100639023
v -0.03439399973 0.05657499656 -0.009522500448
vn 0.3192554116 -0.9476554394 0.005013537593
v -0.03439350054 0.05659420043 -0.01027250011
vn 0.2513098121 -0.9679028988 0.002710552653
v -0.03389349952 0.05673910677 -0.009772500023
vn 0.3122307956 -0.9499945045 0.004732348025
v -0.03389349952 0.05674529448 -0.009522500448
vn 0.3622731268 -0.9311987162 0.04033817351
v -0.03368199989 0.05682499707 -0.009772500023
vn 0.4524407089 -0.8880434036 0.08170839399
v -0.03364349902 0.05681179836 -0.0100224996
vn 0.2864855826 -0.9579074383 0.0184219908
v -0.03364349902 0.05682499707 -0.009913739748
vn 0.4121876657 -0.9043046236 0.1110607982
# mm_gid 0
g mmGroup0
f 1//1 4//4 8//8 
f 2//2 1//1 5//5 
f 7//7 5//5 9//9 
f 5//5 8//8 9//9 
f 1//1 8//8 5//5 
f 3//3 5//5 6//6 
f 7//7 6//6 5//5 
f 3//3 2//2 5//5 
