v -0.001393499901 0.1038250029 0.005282298662
vn -0.6530740261 -0.03826724738 -0.7563266158
v -0.001326019876 0.1043249965 0.005227499641
vn -0.237506628 -0.08575609326 -0.9675931334
v -0.00114349986 0.1038250029 0.005238999613
vn -0.07810765505 -0.1207108721 -0.989610076
v -0.00114349986 0.1045750007 0.005147100426
vn -0.1908932775 -0.08900541812 -0.9775672555
v -0.0008934958023 0.1045750007 0.005128298886
vn -0.03800018504 -0.1175189093 -0.9923433065
v -0.0006434990792 0.1040749997 0.005198900588
vn 0.04773675278 -0.1754689664 -0.9833269119
# mm_gid 0
g mmGroup0
f 3//3 4//4 5//5 
f 3//3 5//5 6//6 
f 3//3 2//2 4//4 
f 2//2 3//3 1//1 
