v -0.03120890073 0.0552328974 0.008209729567
vn 0.8438726068 -0.1944008172 -0.5000873208
v -0.03119729832 0.05550190061 0.00814286992
vn 0.8464696407 -0.1475199312 -0.5115926862
v -0.03061319888 0.0548574999 0.009353590198
vn 0.8329870701 -0.2110053301 -0.5114775896
v -0.03059449978 0.05450860038 0.009592290036
vn 0.7993736863 -0.3101125062 -0.5146182775
v -0.03030630201 0.05587030202 0.009488379583
vn 0.8270619512 -0.1535337567 -0.5407364368
v -0.03024059907 0.0545630008 0.0100843003
vn 0.7789298296 -0.3439557552 -0.5243689418
v -0.03022049926 0.05673900247 0.009405029006
vn 0.8326491117 -0.1427051723 -0.5350987911
v -0.03020340018 0.0550706014 0.009887049906
vn 0.8028180599 -0.2276567817 -0.5510495305
v -0.02998640016 0.05460200086 0.01043859869
vn 0.777428925 -0.3064754307 -0.5492513776
v -0.02960140072 0.0550406985 0.01075309981
vn 0.7965415716 -0.18216452 -0.5764873028
v -0.02950429916 0.05706620216 0.01038530096
vn 0.8138053417 -0.1482407004 -0.561912477
v -0.02945649996 0.05629809573 0.01063140109
vn 0.796610415 -0.1381025165 -0.5885062218
# mm_gid 0
g mmGroup0
f 5//5 2//2 7//7 
f 5//5 1//1 2//2 
f 5//5 3//3 1//1 
f 8//8 3//3 5//5 
f 4//4 3//3 8//8 
f 4//4 8//8 6//6 
f 9//9 6//6 8//8 
f 5//5 11//11 12//12 
f 10//10 9//9 8//8 
f 10//10 8//8 5//5 
f 5//5 7//7 11//11 
f 10//10 5//5 12//12 
