v -0.03064350039 0.06082499772 0.003173399717
vn -0.5212537646 -0.5862021446 -0.620210886
v -0.03139349818 0.06157499552 0.003215100151
vn -0.5744418502 -0.4712400138 -0.6692902446
v -0.03119860031 0.06132500246 0.003227499314
vn -0.5538926721 -0.5118242502 -0.6566877365
v -0.03089350276 0.06107500196 0.003170301439
vn -0.5448115468 -0.531450212 -0.6486455202
v -0.03139349818 0.06155790016 0.003227499314
vn -0.5697410703 -0.4763124585 -0.6697174907
v -0.03140759841 0.06157499552 0.003227499314
vn -0.6018284559 -0.4445459843 -0.6634616852
v -0.0318934992 0.06157499552 0.003672100836
vn -0.6010509133 -0.4656004608 -0.6495798826
v -0.03139349818 0.06132500246 0.00339289871
vn -0.5846310854 -0.4971888363 -0.6411004066
v -0.03139349818 0.06082499772 0.003799700877
vn -0.5434697866 -0.5559257269 -0.628957212
v -0.03089350276 0.06032500416 0.003874399699
vn -0.5003552437 -0.6241257191 -0.6000930667
v -0.03139349818 0.0606328994 0.003977499902
vn -0.5355389118 -0.6064787507 -0.5876917243
v -0.0318934992 0.06117480248 0.003977499902
vn -0.5914214849 -0.5159645677 -0.6196782589
v -0.03089350276 0.05982499942 0.004434001632
vn -0.5049981475 -0.6467856765 -0.5715287924
v -0.03089350276 0.05958129466 0.004727497231
vn -0.4981114268 -0.6705269217 -0.549798727
v -0.03164349869 0.06057499722 0.004270000849
vn -0.5403066278 -0.5999065638 -0.5900685191
v -0.0321434997 0.06082499772 0.004520397168
vn -0.584949851 -0.5291101933 -0.6147162318
v -0.03122019954 0.05982499942 0.004727497231
vn -0.4972535968 -0.6551232338 -0.5688167214
v -0.03164349869 0.06013889611 0.004727497231
vn -0.5264905095 -0.6386990547 -0.5611339211
v -0.03211550042 0.06057499722 0.004727497231
vn -0.5639178753 -0.5848543048 -0.5830455422
v -0.03115309961 0.05957499892 0.004977498204
vn -0.4868405759 -0.6796155572 -0.5487339497
v -0.03114349954 0.05957499892 0.004968899768
vn -0.4979169667 -0.6832575798 -0.5340765715
v -0.03139349818 0.05957499892 0.005190700293
vn -0.5157619119 -0.6712138653 -0.5324111581
v -0.03210619837 0.06032500416 0.004977498204
vn -0.5392637253 -0.6453816891 -0.5409964323
v -0.0318934992 0.05957499892 0.005684001371
vn -0.5164815784 -0.6694468856 -0.5339359641
# mm_gid 0
g mmGroup0
f 5//5 6//6 2//2 
f 5//5 2//2 3//3 
f 7//7 6//6 8//8 
f 8//8 3//3 9//9 
f 5//5 8//8 6//6 
f 8//8 5//5 3//3 
f 9//9 4//4 1//1 
f 3//3 4//4 9//9 
f 11//11 9//9 10//10 
f 12//12 8//8 9//9 
f 9//9 1//1 10//10 
f 12//12 9//9 11//11 
f 7//7 8//8 12//12 
f 12//12 11//11 15//15 
f 15//15 17//17 18//18 
f 11//11 10//10 13//13 
f 15//15 13//13 17//17 
f 16//16 15//15 19//19 
f 16//16 12//12 15//15 
f 15//15 11//11 13//13 
f 21//21 20//20 17//17 
f 13//13 14//14 17//17 
f 14//14 21//21 17//17 
f 19//19 15//15 18//18 
f 17//17 20//20 22//22 
f 19//19 18//18 23//23 
f 18//18 17//17 22//22 
f 23//23 22//22 24//24 
f 23//23 18//18 22//22 
