v 0.0157931 -0.1326709986 0.310597986
vn 0.5107142925 -0.8531020284 -0.1067139134
v 0.0413906984 -0.1015420035 0.2051499784
vn 0.8546886444 -0.4965169132 -0.1515859962
v 0.04029579833 -0.1057299897 0.2415299863
vn 0.8080955148 -0.5887490511 -0.01887255907
v 0.03841949999 -0.108570002 0.2866140008
vn 0.8213502169 -0.5684348345 -0.04759892449
v 0.05513349921 -0.07330960035 0.258848995
vn 0.9652821422 -0.2611813545 0.003839114914
v 0.05406650156 -0.07516469806 0.3049769998
vn 0.9752932191 -0.2207868993 -0.007500232663
v 0.02375350147 -0.1181040034 0.2106400132
vn 0.5687762499 -0.8156933188 -0.1055367142
v 0.01750010066 -0.1271670014 0.2595320046
vn 0.5441817045 -0.8361051679 -0.06924207509
v 0.03325819969 -0.1017080024 0.1754110157
vn 0.8125938773 -0.5603718758 -0.1602329761
v 0.02866829932 0.1375200003 0.3932150006
vn 0.8908247948 0.4540433288 0.01660809852
v 0.05374440551 0.03040209971 0.3432889879
vn 0.9922429919 0.1236393452 0.01292726956
v 0.04447989911 0.08712799847 0.3572029769
vn 0.9756067991 0.2170550525 0.03284017742
v 0.0575577952 -0.01356850099 0.3065290153
vn 0.9996802807 0.02402722649 -0.007874592207
v 0.05823929608 -0.0346570015 0.2647610009
vn 0.9998300076 -0.01843121834 -0.0005400371738
v 0.05661439896 -0.04561129957 0.2264869958
vn 0.9963517189 -0.01839789748 -0.08333557844
v 0.05583940074 -0.00492738001 0.2403190136
vn 0.997100234 0.05192522332 -0.05563183129
v 0.05270760134 -0.004872560035 0.1996670067
vn 0.9953186512 0.02027587406 -0.09449668229
v 0.05418350548 -0.07689859718 0.2245129794
vn 0.959412992 -0.271409899 -0.07657260448
v 0.05008320138 -0.06454809755 0.1854499876
vn 0.9754719138 -0.1674088538 -0.1429295093
v 0.04876440018 -0.03800170124 0.1525130123
vn 0.9924150109 -0.04772540927 -0.1132906228
v 0.04264729843 -0.05421650037 0.1177079901
vn 0.9789036512 -0.1422633231 -0.1466588825
v 0.0438968949 -0.01567629911 0.1168989986
vn 0.9904969335 0.01940504648 -0.1361587793
v 0.03938920051 -0.08065970242 0.1426529884
vn 0.9230122566 -0.35937047 -0.1374819428
v 0.03038119897 0.1361979991 0.3459309936
vn 0.8387608528 0.544490993 0.00313515123
v 0.03942149878 0.1163410023 0.2994180024
vn 0.9229581952 0.3831523359 -0.03663939983
v 0.02746910043 0.1322299987 0.2674080133
vn 0.7286980152 0.6800920367 -0.08046121895
v 0.04553490132 0.09074350446 0.2765290141
vn 0.9773980379 0.2111155093 -0.01110667177
v 0.04261400178 0.1016330048 0.3232379854
vn 0.9704082608 0.2382531315 0.03928495571
v 0.0477534011 0.07327660173 0.3192130029
vn 0.9874506593 0.1568706483 0.01824402623
v 0.0525370948 0.03492569923 0.2245300114
vn 0.9956688285 0.08272992074 -0.04241895676
v 0.04761030525 0.06023449823 0.1826789975
vn 0.9836377501 0.1473394632 -0.10367167
v 0.05166399851 0.0501107946 0.2794849873
vn 0.992942214 0.1185958236 -0.0008587908815
v 0.04788110405 0.07523909956 0.2136079818
vn 0.980191648 0.1927077919 -0.04569453746
v 0.05578899756 0.008583020419 0.2683230042
vn 0.9967119098 0.08002347499 -0.01271230541
v 0.04927840084 0.03798549995 0.1771209836
vn 0.9928928614 0.05979898199 -0.102897346
v 0.04718779773 0.01479570009 0.1543929875
vn 0.9906121492 0.0513295792 -0.1266998649
v 0.03812190145 0.03954349831 0.1025249958
vn 0.9869025946 0.10906443 -0.118862018
v 0.04310719669 0.05489270017 0.1486530006
vn 0.9796248078 0.1353079379 -0.1484147906
v 0.02256090008 0.1124050021 0.1169919893
vn 0.8222250938 0.5413728952 -0.1756737679
v 0.03307029977 0.0787158981 0.110379003
vn 0.9580845833 0.2502267957 -0.1395010352
v 0.02583930083 0.1228400022 0.1668599993
vn 0.7844823599 0.6063115597 -0.1302832663
v 0.0386954993 0.08429779857 0.159134984
vn 0.9484716058 0.2889805436 -0.1299688816
v 0.02380819991 0.1285589933 0.2129970193
vn 0.7160387039 0.6922160983 -0.09014104307
v 0.03913750127 0.1021029949 0.213376984
vn 0.9193444252 0.3861414194 -0.07550264895
# mm_gid 0
g mmGroup0
f 14//14 5//5 15//15 
f 6//6 5//5 14//14 
f 15//15 18//18 19//19 
f 5//5 3//3 18//18 
f 17//17 16//16 15//15 
f 6//6 14//14 13//13 
f 20//20 19//19 23//23 
f 18//18 3//3 2//2 
f 2//2 9//9 19//19 
f 15//15 5//5 18//18 
f 2//2 19//19 18//18 
f 21//21 20//20 23//23 
f 19//19 9//9 23//23 
f 22//22 20//20 21//21 
f 22//22 36//36 20//20 
f 35//35 30//30 17//17 
f 36//36 35//35 17//17 
f 17//17 15//15 19//19 
f 38//38 36//36 37//37 
f 37//37 36//36 22//22 
f 15//15 16//16 14//14 
f 12//12 11//11 29//29 
f 14//14 16//16 34//34 
f 11//11 13//13 32//32 
f 32//32 13//13 34//34 
f 34//34 13//13 14//14 
f 20//20 17//17 19//19 
f 36//36 17//17 20//20 
f 29//29 11//11 32//32 
f 10//10 12//12 24//24 
f 28//28 27//27 25//25 
f 12//12 29//29 28//28 
f 32//32 27//27 29//29 
f 24//24 12//12 28//28 
f 30//30 32//32 34//34 
f 16//16 30//30 34//34 
f 33//33 32//32 30//30 
f 28//28 25//25 24//24 
f 33//33 27//27 32//32 
f 31//31 33//33 30//30 
f 29//29 27//27 28//28 
f 31//31 42//42 33//33 
f 41//41 43//43 44//44 
f 38//38 40//40 42//42 
f 42//42 39//39 41//41 
f 31//31 38//38 42//42 
f 35//35 36//36 38//38 
f 38//38 37//37 40//40 
f 35//35 38//38 31//31 
f 17//17 30//30 16//16 
f 31//31 30//30 35//35 
f 44//44 27//27 33//33 
f 44//44 42//42 41//41 
f 42//42 40//40 39//39 
f 42//42 44//44 33//33 
f 25//25 44//44 26//26 
f 25//25 27//27 44//44 
f 44//44 43//43 26//26 
f 7//7 2//2 3//3 
f 4//4 1//1 8//8 
f 8//8 3//3 4//4 
f 3//3 8//8 7//7 
f 7//7 9//9 2//2 
f 24//24 25//25 26//26 
f 4//4 3//3 5//5 
f 6//6 4//4 5//5 
