v 0.04271969944 0.08007709682 0.2691490054
vn 0.8955703378 0.4448567033 0.007500386331
v 0.03461210057 0.09683529288 0.2466570139
vn 0.9037300348 0.4273746014 0.02495985106
v 0.04059239849 0.076324597 0.1590079814
vn 0.969409883 0.2453146875 0.008072979748
v 0.0382310003 0.08832369745 0.2098439783
vn 0.9600877166 0.2791178524 -0.01802146807
v 0.04530119896 0.06885480136 0.2445970178
vn 0.9532920718 0.2927395701 -0.07441610098
v 0.04865140095 0.06475979835 0.2624680102
vn 0.9042249322 0.3660544753 -0.2199576795
v 0.05106219649 0.03384830058 0.2142479867
vn 0.9814757705 0.1803094298 -0.06475973129
v 0.05244340003 0.01158609986 0.166806981
vn 0.9924209118 0.1196137071 -0.02816463262
v 0.0547281988 0.0399270989 0.251696974
vn 0.9062716961 0.2863703072 -0.3109078109
v 0.05851440504 0.009202100337 0.2416909784
vn 0.9841743112 0.1383604705 -0.1107128561
v 0.05884210393 -0.008877489716 0.224804014
vn 0.9834312797 0.1257250905 -0.1305992752
v 0.05699520186 -0.02950469963 0.1929889917
vn 0.9968892336 0.05061647668 -0.06041358039
v 0.06034760177 -0.006739370059 0.2427169979
vn 0.6787840128 0.1904957294 -0.7091993093
v 0.06169449911 -0.03182860091 0.2310849875
vn 0.9891632199 0.0624887459 -0.1328579038
v 0.04735120013 0.04322649911 0.1624680012
vn 0.9841728806 0.1764853001 -0.0160229113
v 0.05599089712 -0.02094399929 0.1603709906
vn 0.9966629744 0.0810649097 -0.009561711922
# mm_gid 0
g mmGroup0
f 8//8 7//7 12//12 
f 12//12 11//11 14//14 
f 16//16 8//8 12//12 
f 10//10 11//11 7//7 
f 14//14 11//11 10//10 
f 13//13 14//14 10//10 
f 10//10 9//9 13//13 
f 6//6 9//9 5//5 
f 7//7 9//9 10//10 
f 15//15 3//3 7//7 
f 7//7 11//11 12//12 
f 7//7 8//8 15//15 
f 3//3 4//4 7//7 
f 6//6 5//5 1//1 
f 1//1 5//5 2//2 
f 5//5 4//4 2//2 
f 5//5 9//9 7//7 
f 7//7 4//4 5//5 
