v -0.7535459995 -0.9668951035 -0.2445060015
vn -0.6198279858 -0.7631195784 -0.1829256713
v -0.7955870032 -0.9403569698 -0.2127640247
vn -0.636151433 -0.7525233626 -0.1703524441
v -0.8309750557 -0.9023550153 -0.2402810156
vn -0.6647571325 -0.7219006419 -0.1922431439
v -0.8348750472 -0.9124750495 -0.1813060045
vn -0.6676242352 -0.7302069664 -0.1451746523
v -0.8687210083 -0.8742710352 -0.2085069716
vn -0.6949692965 -0.6994220018 -0.1668129265
v -0.871530056 -0.8833840489 -0.1502300054
vn -0.6900239587 -0.7109090686 -0.1359235346
v -0.9038640261 -0.8450940251 -0.1770499945
vn -0.7092109323 -0.6879123449 -0.1542610675
v -0.7585920095 -0.9763240218 -0.1839289963
vn -0.6217499971 -0.7669240832 -0.1589164138
v -0.79965204 -0.9485609531 -0.1525990069
vn -0.6452889442 -0.7513352036 -0.1381939948
# mm_gid 0
g mmGroup0
f 3//3 2//2 4//4 
f 5//5 3//3 4//4 
f 5//5 4//4 6//6 
f 7//7 5//5 6//6 
f 2//2 1//1 8//8 
f 2//2 8//8 9//9 
f 4//4 2//2 9//9 
