v -0.05823929608 -0.0346570015 -0.03523901105
vn -0.9998300076 -0.01843115315 -0.0005400032969
v -0.05661439896 -0.04561129957 -0.0735129863
vn -0.9963517189 -0.01839787327 -0.08333554864
v -0.05583940074 -0.00492738001 -0.05968100205
vn -0.997100234 0.05192525685 -0.05563177913
v -0.05513349921 -0.07330960035 -0.04115098715
vn -0.9652821422 -0.2611813545 0.00383914751
v -0.05418350548 -0.07689859718 -0.07548698783
vn -0.959412992 -0.2714099288 -0.07657258213
v -0.05270760134 -0.004872560035 -0.1003329903
vn -0.9953186512 0.020275902 -0.09449668229
v -0.05008320138 -0.06454809755 -0.1145500019
vn -0.9754719138 -0.1674088538 -0.1429295093
# mm_gid 0
g mmGroup0
f 3//3 2//2 1//1 
f 2//2 6//6 7//7 
f 4//4 2//2 5//5 
f 5//5 2//2 7//7 
f 4//4 1//1 2//2 
f 3//3 6//6 2//2 
