v -0.01065350045 -0.01052219979 -0.5034199953
vn -0.9769222736 -0.2135687768 -0.003362357616
v -0.00541563984 0.003136649961 -0.4985530078
vn -0.8892316818 -0.3514381051 -0.2928451598
v -0.005351020489 0.003140239744 -0.498137027
vn -0.9471054673 0.2884404063 0.1406886876
v -0.004937829915 0.002386759967 -0.493799001
vn -0.947114706 0.2885684371 0.1403636485
v -0.004867219832 0.002261039801 -0.4930650294
vn -0.7547855973 -0.6556742787 -0.01974759623
v -0.004813000094 0.002220170107 -0.4930389822
vn -0.6294022202 -0.7640414238 0.1417516321
v -0.001177059952 -0.0004198999959 -0.5065389872
vn -0.8652000427 -0.380902797 -0.3261010945
v 0 -0.01628349908 -0.4974249899
vn 0 -0.9473762512 0.3201222122
v 0 -0.009561959654 -0.515411973
vn -3.367753367e-17 -0.5750591159 -0.8181118369
v 0 -0.001212020055 -0.49070099
vn -9.037567585e-17 -0.629803896 0.7767542005
v 0 -0.0008320079651 -0.5082859993
vn -2.373648104e-16 -0.460953027 -0.8874245286
# mm_gid 0
g mmGroup0
f 3//3 2//2 1//1 
f 1//1 5//5 4//4 
f 10//10 6//6 1//1 
f 4//4 3//3 1//1 
f 6//6 5//5 1//1 
f 11//11 9//9 1//1 
f 1//1 8//8 10//10 
f 2//2 7//7 1//1 
f 7//7 11//11 1//1 
f 1//1 9//9 8//8 
